%TF.GenerationSoftware,KiCad,Pcbnew,6.0.11+dfsg-1*%
%TF.CreationDate,2025-09-01T17:49:00-05:00*%
%TF.ProjectId,TinyFreq,54696e79-4672-4657-912e-6b696361645f,rev?*%
%TF.SameCoordinates,Original*%
%TF.FileFunction,Drillmap*%
%TF.FilePolarity,Positive*%
%FSLAX45Y45*%
G04 Gerber Fmt 4.5, Leading zero omitted, Abs format (unit mm)*
G04 Created by KiCad (PCBNEW 6.0.11+dfsg-1) date 2025-09-01 17:49:00*
%MOMM*%
%LPD*%
G01*
G04 APERTURE LIST*
%ADD10C,0.100000*%
%ADD11C,0.200000*%
G04 APERTURE END LIST*
D10*
X12440500Y-11208000D02*
X12450000Y-6400000D01*
X14750000Y-6400000D02*
X14740500Y-11208000D01*
X12450000Y-6400000D02*
X14750000Y-6400000D01*
D11*
X12693119Y-13523476D02*
X12693119Y-13323476D01*
X12740738Y-13323476D01*
X12769309Y-13333000D01*
X12788357Y-13352048D01*
X12797881Y-13371095D01*
X12807405Y-13409190D01*
X12807405Y-13437762D01*
X12797881Y-13475857D01*
X12788357Y-13494905D01*
X12769309Y-13513952D01*
X12740738Y-13523476D01*
X12693119Y-13523476D01*
X12893119Y-13523476D02*
X12893119Y-13390143D01*
X12893119Y-13428238D02*
X12902643Y-13409190D01*
X12912167Y-13399667D01*
X12931214Y-13390143D01*
X12950262Y-13390143D01*
X13016928Y-13523476D02*
X13016928Y-13390143D01*
X13016928Y-13323476D02*
X13007405Y-13333000D01*
X13016928Y-13342524D01*
X13026452Y-13333000D01*
X13016928Y-13323476D01*
X13016928Y-13342524D01*
X13140738Y-13523476D02*
X13121690Y-13513952D01*
X13112167Y-13494905D01*
X13112167Y-13323476D01*
X13245500Y-13523476D02*
X13226452Y-13513952D01*
X13216928Y-13494905D01*
X13216928Y-13323476D01*
X13474071Y-13523476D02*
X13474071Y-13323476D01*
X13540738Y-13466333D01*
X13607405Y-13323476D01*
X13607405Y-13523476D01*
X13788357Y-13523476D02*
X13788357Y-13418714D01*
X13778833Y-13399667D01*
X13759786Y-13390143D01*
X13721690Y-13390143D01*
X13702643Y-13399667D01*
X13788357Y-13513952D02*
X13769309Y-13523476D01*
X13721690Y-13523476D01*
X13702643Y-13513952D01*
X13693119Y-13494905D01*
X13693119Y-13475857D01*
X13702643Y-13456809D01*
X13721690Y-13447286D01*
X13769309Y-13447286D01*
X13788357Y-13437762D01*
X13883595Y-13390143D02*
X13883595Y-13590143D01*
X13883595Y-13399667D02*
X13902643Y-13390143D01*
X13940738Y-13390143D01*
X13959786Y-13399667D01*
X13969309Y-13409190D01*
X13978833Y-13428238D01*
X13978833Y-13485381D01*
X13969309Y-13504428D01*
X13959786Y-13513952D01*
X13940738Y-13523476D01*
X13902643Y-13523476D01*
X13883595Y-13513952D01*
X14064548Y-13504428D02*
X14074071Y-13513952D01*
X14064548Y-13523476D01*
X14055024Y-13513952D01*
X14064548Y-13504428D01*
X14064548Y-13523476D01*
X14064548Y-13399667D02*
X14074071Y-13409190D01*
X14064548Y-13418714D01*
X14055024Y-13409190D01*
X14064548Y-13399667D01*
X14064548Y-13418714D01*
M02*
