%TF.GenerationSoftware,KiCad,Pcbnew,6.0.11+dfsg-1*%
%TF.CreationDate,2025-09-02T17:45:45-05:00*%
%TF.ProjectId,TinyFreq,54696e79-4672-4657-912e-6b696361645f,rev?*%
%TF.SameCoordinates,Original*%
%TF.FileFunction,Soldermask,Top*%
%TF.FilePolarity,Negative*%
%FSLAX46Y46*%
G04 Gerber Fmt 4.6, Leading zero omitted, Abs format (unit mm)*
G04 Created by KiCad (PCBNEW 6.0.11+dfsg-1) date 2025-09-02 17:45:45*
%MOMM*%
%LPD*%
G01*
G04 APERTURE LIST*
%ADD10C,0.120000*%
%ADD11C,1.600000*%
%ADD12O,1.600000X1.600000*%
%ADD13C,1.400000*%
%ADD14O,1.400000X1.400000*%
%ADD15R,1.800000X1.800000*%
%ADD16O,1.800000X1.800000*%
%ADD17R,1.600000X1.600000*%
%ADD18R,1.500000X1.050000*%
%ADD19O,1.500000X1.050000*%
%ADD20R,2.500000X15.000000*%
%ADD21R,1.700000X1.700000*%
%ADD22O,1.700000X1.700000*%
%ADD23R,2.200000X2.200000*%
%ADD24O,2.200000X2.200000*%
G04 APERTURE END LIST*
D10*
%TO.C,J1*%
X124405000Y-114080000D02*
X147405000Y-114080000D01*
X147405000Y-114080000D02*
X147405000Y-132080000D01*
X147405000Y-132080000D02*
X124405000Y-132080000D01*
X124405000Y-132080000D02*
X124405000Y-114080000D01*
G36*
X124405000Y-114080000D02*
G01*
X147405000Y-114080000D01*
X147405000Y-132080000D01*
X124405000Y-132080000D01*
X124405000Y-114080000D01*
G37*
%TD*%
D11*
%TO.C,C2*%
X139655000Y-98580000D03*
D12*
X132155000Y-98580000D03*
%TD*%
D13*
%TO.C,R4*%
X143655000Y-85580000D03*
D14*
X143655000Y-90660000D03*
%TD*%
D13*
%TO.C,R2*%
X131405000Y-104980000D03*
D14*
X131405000Y-110060000D03*
%TD*%
D11*
%TO.C,C1*%
X127905000Y-95250000D03*
D12*
X127905000Y-102750000D03*
%TD*%
D15*
%TO.C,D4*%
X139655000Y-95080000D03*
D16*
X132035000Y-95080000D03*
%TD*%
D13*
%TO.C,R1*%
X127505000Y-104980000D03*
D14*
X127505000Y-110060000D03*
%TD*%
D17*
%TO.C,U2*%
X131855000Y-76780000D03*
D12*
X131855000Y-79320000D03*
X131855000Y-81860000D03*
X131855000Y-84400000D03*
X139475000Y-84400000D03*
X139475000Y-81860000D03*
X139475000Y-79320000D03*
X139475000Y-76780000D03*
%TD*%
D18*
%TO.C,Q1*%
X128385000Y-89060000D03*
D19*
X128385000Y-90330000D03*
X128385000Y-91600000D03*
%TD*%
D15*
%TO.C,D2*%
X135405000Y-109830000D03*
D16*
X135405000Y-102210000D03*
%TD*%
D18*
%TO.C,U1*%
X143685000Y-93810000D03*
D19*
X143685000Y-95080000D03*
X143685000Y-96350000D03*
%TD*%
D20*
%TO.C,J1*%
X126155000Y-123930000D03*
X129655000Y-123930000D03*
X133155000Y-123930000D03*
X136655000Y-123930000D03*
X142155000Y-123930000D03*
X145655000Y-123930000D03*
%TD*%
D15*
%TO.C,D3*%
X139905000Y-109890000D03*
D16*
X139905000Y-102270000D03*
%TD*%
D18*
%TO.C,Q2*%
X137405000Y-91580000D03*
D19*
X137405000Y-90310000D03*
X137405000Y-89040000D03*
%TD*%
D21*
%TO.C,J2*%
X138430000Y-66055000D03*
D22*
X138430000Y-68595000D03*
X135890000Y-66055000D03*
X135890000Y-68595000D03*
X133350000Y-66055000D03*
X133350000Y-68595000D03*
%TD*%
D13*
%TO.C,R3*%
X127905000Y-86380000D03*
D14*
X127905000Y-81300000D03*
%TD*%
D23*
%TO.C,D1*%
X144405000Y-99920000D03*
D24*
X144405000Y-110080000D03*
%TD*%
D11*
%TO.C,C3*%
X139405000Y-73330000D03*
D12*
X131905000Y-73330000D03*
%TD*%
M02*
