M48
; DRILL file {KiCad 6.0.11+dfsg-1} date Tue 02 Sep 2025 05:45:50 PM CDT
; FORMAT={-:-/ absolute / inch / decimal}
; #@! TF.CreationDate,2025-09-02T17:45:50-05:00
; #@! TF.GenerationSoftware,Kicad,Pcbnew,6.0.11+dfsg-1
; #@! TF.FileFunction,Plated,1,2,PTH
FMAT,2
INCH
; #@! TA.AperFunction,Plated,PTH,ViaDrill
T1C0.0157
; #@! TA.AperFunction,Plated,PTH,ComponentDrill
T2C0.0276
; #@! TA.AperFunction,Plated,PTH,ComponentDrill
T3C0.0295
; #@! TA.AperFunction,Plated,PTH,ComponentDrill
T4C0.0315
; #@! TA.AperFunction,Plated,PTH,ComponentDrill
T5C0.0354
; #@! TA.AperFunction,Plated,PTH,ComponentDrill
T6C0.0394
; #@! TA.AperFunction,Plated,PTH,ComponentDrill
T7C0.0433
%
G90
G05
T1
X5.2128Y-4.4488
X5.2561Y-4.387
X5.4915Y-4.4488
X5.4921Y-4.5701
T2
X5.0199Y-4.1331
X5.0199Y-4.3331
X5.0356Y-3.2008
X5.0356Y-3.4008
X5.1734Y-4.1331
X5.1734Y-4.3331
X5.6557Y-3.3693
X5.6557Y-3.5693
T3
X5.0545Y-3.5063
X5.0545Y-3.5563
X5.0545Y-3.6063
X5.4096Y-3.5055
X5.4096Y-3.5555
X5.4096Y-3.6055
X5.6569Y-3.6933
X5.6569Y-3.7433
X5.6569Y-3.7933
T4
X5.0356Y-3.75
X5.0356Y-4.0453
X5.1911Y-3.0228
X5.1911Y-3.1228
X5.1911Y-3.2228
X5.1911Y-3.3228
X5.1931Y-2.887
X5.203Y-3.8811
X5.4884Y-2.887
X5.4911Y-3.0228
X5.4911Y-3.1228
X5.4911Y-3.2228
X5.4911Y-3.3228
X5.4982Y-3.8811
T5
X5.1982Y-3.7433
X5.3309Y-4.024
X5.3309Y-4.324
X5.4982Y-3.7433
X5.5081Y-4.0264
X5.5081Y-4.3264
T6
X5.25Y-2.6006
X5.25Y-2.7006
X5.35Y-2.6006
X5.35Y-2.7006
X5.45Y-2.6006
X5.45Y-2.7006
T7
X5.6852Y-3.9339
X5.6852Y-4.3339
T0
M30
