%TF.GenerationSoftware,KiCad,Pcbnew,6.0.11+dfsg-1*%
%TF.CreationDate,2025-09-02T17:45:45-05:00*%
%TF.ProjectId,TinyFreq,54696e79-4672-4657-912e-6b696361645f,rev?*%
%TF.SameCoordinates,Original*%
%TF.FileFunction,Legend,Top*%
%TF.FilePolarity,Positive*%
%FSLAX46Y46*%
G04 Gerber Fmt 4.6, Leading zero omitted, Abs format (unit mm)*
G04 Created by KiCad (PCBNEW 6.0.11+dfsg-1) date 2025-09-02 17:45:45*
%MOMM*%
%LPD*%
G01*
G04 APERTURE LIST*
%ADD10C,0.150000*%
%ADD11C,0.120000*%
G04 APERTURE END LIST*
D10*
%TO.C,C2*%
X135738333Y-98937142D02*
X135690714Y-98984761D01*
X135547857Y-99032380D01*
X135452619Y-99032380D01*
X135309761Y-98984761D01*
X135214523Y-98889523D01*
X135166904Y-98794285D01*
X135119285Y-98603809D01*
X135119285Y-98460952D01*
X135166904Y-98270476D01*
X135214523Y-98175238D01*
X135309761Y-98080000D01*
X135452619Y-98032380D01*
X135547857Y-98032380D01*
X135690714Y-98080000D01*
X135738333Y-98127619D01*
X136119285Y-98127619D02*
X136166904Y-98080000D01*
X136262142Y-98032380D01*
X136500238Y-98032380D01*
X136595476Y-98080000D01*
X136643095Y-98127619D01*
X136690714Y-98222857D01*
X136690714Y-98318095D01*
X136643095Y-98460952D01*
X136071666Y-99032380D01*
X136690714Y-99032380D01*
%TO.C,R4*%
X144107380Y-88286666D02*
X143631190Y-88620000D01*
X144107380Y-88858095D02*
X143107380Y-88858095D01*
X143107380Y-88477142D01*
X143155000Y-88381904D01*
X143202619Y-88334285D01*
X143297857Y-88286666D01*
X143440714Y-88286666D01*
X143535952Y-88334285D01*
X143583571Y-88381904D01*
X143631190Y-88477142D01*
X143631190Y-88858095D01*
X143440714Y-87429523D02*
X144107380Y-87429523D01*
X143059761Y-87667619D02*
X143774047Y-87905714D01*
X143774047Y-87286666D01*
%TO.C,R2*%
X131857380Y-107686666D02*
X131381190Y-108020000D01*
X131857380Y-108258095D02*
X130857380Y-108258095D01*
X130857380Y-107877142D01*
X130905000Y-107781904D01*
X130952619Y-107734285D01*
X131047857Y-107686666D01*
X131190714Y-107686666D01*
X131285952Y-107734285D01*
X131333571Y-107781904D01*
X131381190Y-107877142D01*
X131381190Y-108258095D01*
X130952619Y-107305714D02*
X130905000Y-107258095D01*
X130857380Y-107162857D01*
X130857380Y-106924761D01*
X130905000Y-106829523D01*
X130952619Y-106781904D01*
X131047857Y-106734285D01*
X131143095Y-106734285D01*
X131285952Y-106781904D01*
X131857380Y-107353333D01*
X131857380Y-106734285D01*
%TO.C,C1*%
X128262142Y-99166666D02*
X128309761Y-99214285D01*
X128357380Y-99357142D01*
X128357380Y-99452380D01*
X128309761Y-99595238D01*
X128214523Y-99690476D01*
X128119285Y-99738095D01*
X127928809Y-99785714D01*
X127785952Y-99785714D01*
X127595476Y-99738095D01*
X127500238Y-99690476D01*
X127405000Y-99595238D01*
X127357380Y-99452380D01*
X127357380Y-99357142D01*
X127405000Y-99214285D01*
X127452619Y-99166666D01*
X128357380Y-98214285D02*
X128357380Y-98785714D01*
X128357380Y-98500000D02*
X127357380Y-98500000D01*
X127500238Y-98595238D01*
X127595476Y-98690476D01*
X127643095Y-98785714D01*
%TO.C,D4*%
X135106904Y-95532380D02*
X135106904Y-94532380D01*
X135345000Y-94532380D01*
X135487857Y-94580000D01*
X135583095Y-94675238D01*
X135630714Y-94770476D01*
X135678333Y-94960952D01*
X135678333Y-95103809D01*
X135630714Y-95294285D01*
X135583095Y-95389523D01*
X135487857Y-95484761D01*
X135345000Y-95532380D01*
X135106904Y-95532380D01*
X136535476Y-94865714D02*
X136535476Y-95532380D01*
X136297380Y-94484761D02*
X136059285Y-95199047D01*
X136678333Y-95199047D01*
%TO.C,R1*%
X127957380Y-107686666D02*
X127481190Y-108020000D01*
X127957380Y-108258095D02*
X126957380Y-108258095D01*
X126957380Y-107877142D01*
X127005000Y-107781904D01*
X127052619Y-107734285D01*
X127147857Y-107686666D01*
X127290714Y-107686666D01*
X127385952Y-107734285D01*
X127433571Y-107781904D01*
X127481190Y-107877142D01*
X127481190Y-108258095D01*
X127957380Y-106734285D02*
X127957380Y-107305714D01*
X127957380Y-107020000D02*
X126957380Y-107020000D01*
X127100238Y-107115238D01*
X127195476Y-107210476D01*
X127243095Y-107305714D01*
%TO.C,U2*%
X134893095Y-80032380D02*
X134893095Y-80841904D01*
X134940714Y-80937142D01*
X134988333Y-80984761D01*
X135083571Y-81032380D01*
X135274047Y-81032380D01*
X135369285Y-80984761D01*
X135416904Y-80937142D01*
X135464523Y-80841904D01*
X135464523Y-80032380D01*
X135893095Y-80127619D02*
X135940714Y-80080000D01*
X136035952Y-80032380D01*
X136274047Y-80032380D01*
X136369285Y-80080000D01*
X136416904Y-80127619D01*
X136464523Y-80222857D01*
X136464523Y-80318095D01*
X136416904Y-80460952D01*
X135845476Y-81032380D01*
X136464523Y-81032380D01*
%TO.C,Q1*%
X132492619Y-90425238D02*
X132445000Y-90520476D01*
X132349761Y-90615714D01*
X132206904Y-90758571D01*
X132159285Y-90853809D01*
X132159285Y-90949047D01*
X132397380Y-90901428D02*
X132349761Y-90996666D01*
X132254523Y-91091904D01*
X132064047Y-91139523D01*
X131730714Y-91139523D01*
X131540238Y-91091904D01*
X131445000Y-90996666D01*
X131397380Y-90901428D01*
X131397380Y-90710952D01*
X131445000Y-90615714D01*
X131540238Y-90520476D01*
X131730714Y-90472857D01*
X132064047Y-90472857D01*
X132254523Y-90520476D01*
X132349761Y-90615714D01*
X132397380Y-90710952D01*
X132397380Y-90901428D01*
X132397380Y-89520476D02*
X132397380Y-90091904D01*
X132397380Y-89806190D02*
X131397380Y-89806190D01*
X131540238Y-89901428D01*
X131635476Y-89996666D01*
X131683095Y-90091904D01*
%TO.C,D2*%
X135857380Y-106758095D02*
X134857380Y-106758095D01*
X134857380Y-106520000D01*
X134905000Y-106377142D01*
X135000238Y-106281904D01*
X135095476Y-106234285D01*
X135285952Y-106186666D01*
X135428809Y-106186666D01*
X135619285Y-106234285D01*
X135714523Y-106281904D01*
X135809761Y-106377142D01*
X135857380Y-106520000D01*
X135857380Y-106758095D01*
X134952619Y-105805714D02*
X134905000Y-105758095D01*
X134857380Y-105662857D01*
X134857380Y-105424761D01*
X134905000Y-105329523D01*
X134952619Y-105281904D01*
X135047857Y-105234285D01*
X135143095Y-105234285D01*
X135285952Y-105281904D01*
X135857380Y-105853333D01*
X135857380Y-105234285D01*
%TO.C,U1*%
X144857380Y-95841904D02*
X145666904Y-95841904D01*
X145762142Y-95794285D01*
X145809761Y-95746666D01*
X145857380Y-95651428D01*
X145857380Y-95460952D01*
X145809761Y-95365714D01*
X145762142Y-95318095D01*
X145666904Y-95270476D01*
X144857380Y-95270476D01*
X145857380Y-94270476D02*
X145857380Y-94841904D01*
X145857380Y-94556190D02*
X144857380Y-94556190D01*
X145000238Y-94651428D01*
X145095476Y-94746666D01*
X145143095Y-94841904D01*
%TO.C,D3*%
X140357380Y-106818095D02*
X139357380Y-106818095D01*
X139357380Y-106580000D01*
X139405000Y-106437142D01*
X139500238Y-106341904D01*
X139595476Y-106294285D01*
X139785952Y-106246666D01*
X139928809Y-106246666D01*
X140119285Y-106294285D01*
X140214523Y-106341904D01*
X140309761Y-106437142D01*
X140357380Y-106580000D01*
X140357380Y-106818095D01*
X139357380Y-105913333D02*
X139357380Y-105294285D01*
X139738333Y-105627619D01*
X139738333Y-105484761D01*
X139785952Y-105389523D01*
X139833571Y-105341904D01*
X139928809Y-105294285D01*
X140166904Y-105294285D01*
X140262142Y-105341904D01*
X140309761Y-105389523D01*
X140357380Y-105484761D01*
X140357380Y-105770476D01*
X140309761Y-105865714D01*
X140262142Y-105913333D01*
%TO.C,Q2*%
X134392619Y-90405238D02*
X134345000Y-90500476D01*
X134249761Y-90595714D01*
X134106904Y-90738571D01*
X134059285Y-90833809D01*
X134059285Y-90929047D01*
X134297380Y-90881428D02*
X134249761Y-90976666D01*
X134154523Y-91071904D01*
X133964047Y-91119523D01*
X133630714Y-91119523D01*
X133440238Y-91071904D01*
X133345000Y-90976666D01*
X133297380Y-90881428D01*
X133297380Y-90690952D01*
X133345000Y-90595714D01*
X133440238Y-90500476D01*
X133630714Y-90452857D01*
X133964047Y-90452857D01*
X134154523Y-90500476D01*
X134249761Y-90595714D01*
X134297380Y-90690952D01*
X134297380Y-90881428D01*
X133392619Y-90071904D02*
X133345000Y-90024285D01*
X133297380Y-89929047D01*
X133297380Y-89690952D01*
X133345000Y-89595714D01*
X133392619Y-89548095D01*
X133487857Y-89500476D01*
X133583095Y-89500476D01*
X133725952Y-89548095D01*
X134297380Y-90119523D01*
X134297380Y-89500476D01*
%TO.C,J2*%
X140212380Y-67658333D02*
X140926666Y-67658333D01*
X141069523Y-67705952D01*
X141164761Y-67801190D01*
X141212380Y-67944047D01*
X141212380Y-68039285D01*
X140307619Y-67229761D02*
X140260000Y-67182142D01*
X140212380Y-67086904D01*
X140212380Y-66848809D01*
X140260000Y-66753571D01*
X140307619Y-66705952D01*
X140402857Y-66658333D01*
X140498095Y-66658333D01*
X140640952Y-66705952D01*
X141212380Y-67277380D01*
X141212380Y-66658333D01*
%TO.C,R3*%
X128357380Y-84006666D02*
X127881190Y-84340000D01*
X128357380Y-84578095D02*
X127357380Y-84578095D01*
X127357380Y-84197142D01*
X127405000Y-84101904D01*
X127452619Y-84054285D01*
X127547857Y-84006666D01*
X127690714Y-84006666D01*
X127785952Y-84054285D01*
X127833571Y-84101904D01*
X127881190Y-84197142D01*
X127881190Y-84578095D01*
X127357380Y-83673333D02*
X127357380Y-83054285D01*
X127738333Y-83387619D01*
X127738333Y-83244761D01*
X127785952Y-83149523D01*
X127833571Y-83101904D01*
X127928809Y-83054285D01*
X128166904Y-83054285D01*
X128262142Y-83101904D01*
X128309761Y-83149523D01*
X128357380Y-83244761D01*
X128357380Y-83530476D01*
X128309761Y-83625714D01*
X128262142Y-83673333D01*
%TO.C,D1*%
X144857380Y-105738095D02*
X143857380Y-105738095D01*
X143857380Y-105500000D01*
X143905000Y-105357142D01*
X144000238Y-105261904D01*
X144095476Y-105214285D01*
X144285952Y-105166666D01*
X144428809Y-105166666D01*
X144619285Y-105214285D01*
X144714523Y-105261904D01*
X144809761Y-105357142D01*
X144857380Y-105500000D01*
X144857380Y-105738095D01*
X144857380Y-104214285D02*
X144857380Y-104785714D01*
X144857380Y-104500000D02*
X143857380Y-104500000D01*
X144000238Y-104595238D01*
X144095476Y-104690476D01*
X144143095Y-104785714D01*
%TO.C,C3*%
X135488333Y-73687142D02*
X135440714Y-73734761D01*
X135297857Y-73782380D01*
X135202619Y-73782380D01*
X135059761Y-73734761D01*
X134964523Y-73639523D01*
X134916904Y-73544285D01*
X134869285Y-73353809D01*
X134869285Y-73210952D01*
X134916904Y-73020476D01*
X134964523Y-72925238D01*
X135059761Y-72830000D01*
X135202619Y-72782380D01*
X135297857Y-72782380D01*
X135440714Y-72830000D01*
X135488333Y-72877619D01*
X135821666Y-72782380D02*
X136440714Y-72782380D01*
X136107380Y-73163333D01*
X136250238Y-73163333D01*
X136345476Y-73210952D01*
X136393095Y-73258571D01*
X136440714Y-73353809D01*
X136440714Y-73591904D01*
X136393095Y-73687142D01*
X136345476Y-73734761D01*
X136250238Y-73782380D01*
X135964523Y-73782380D01*
X135869285Y-73734761D01*
X135821666Y-73687142D01*
D11*
%TO.C,C2*%
X137925000Y-97160000D02*
X133885000Y-97160000D01*
X137925000Y-100000000D02*
X137925000Y-97160000D01*
X138615000Y-98580000D02*
X137925000Y-98580000D01*
X133885000Y-97160000D02*
X133885000Y-100000000D01*
X133885000Y-100000000D02*
X137925000Y-100000000D01*
X133195000Y-98580000D02*
X133885000Y-98580000D01*
%TO.C,R4*%
X144575000Y-86200000D02*
X144575000Y-90040000D01*
X142735000Y-86200000D02*
X142735000Y-90040000D01*
%TO.C,R2*%
X130485000Y-105600000D02*
X130485000Y-109440000D01*
X132325000Y-105600000D02*
X132325000Y-109440000D01*
%TO.C,C1*%
X126485000Y-101020000D02*
X129325000Y-101020000D01*
X129325000Y-101020000D02*
X129325000Y-96980000D01*
X126485000Y-96980000D02*
X126485000Y-101020000D01*
X129325000Y-96980000D02*
X126485000Y-96980000D01*
X127905000Y-96290000D02*
X127905000Y-96980000D01*
X127905000Y-101710000D02*
X127905000Y-101020000D01*
%TO.C,D4*%
X133125000Y-93610000D02*
X133125000Y-93940000D01*
X133125000Y-96550000D02*
X133125000Y-96220000D01*
X137785000Y-96550000D02*
X137785000Y-93610000D01*
X138565000Y-96220000D02*
X138565000Y-96550000D01*
X138565000Y-93940000D02*
X138565000Y-93610000D01*
X137545000Y-96550000D02*
X137545000Y-93610000D01*
X137665000Y-96550000D02*
X137665000Y-93610000D01*
X138565000Y-93610000D02*
X133125000Y-93610000D01*
X138565000Y-96550000D02*
X133125000Y-96550000D01*
%TO.C,R1*%
X126585000Y-105600000D02*
X126585000Y-109440000D01*
X128425000Y-105600000D02*
X128425000Y-109440000D01*
%TO.C,U2*%
X138315000Y-85730000D02*
X138315000Y-75450000D01*
X133015000Y-85730000D02*
X138315000Y-85730000D01*
X134665000Y-75450000D02*
X133015000Y-75450000D01*
X133015000Y-75450000D02*
X133015000Y-85730000D01*
X138315000Y-75450000D02*
X136665000Y-75450000D01*
X134665000Y-75450000D02*
G75*
G03*
X136665000Y-75450000I1000000J0D01*
G01*
%TO.C,Q1*%
X126535000Y-88530000D02*
X126535000Y-92130000D01*
X126546522Y-92168478D02*
G75*
G03*
X130985000Y-90330000I1838478J1838478D01*
G01*
X130985001Y-90330000D02*
G75*
G03*
X126546522Y-88491522I-2600001J0D01*
G01*
%TO.C,D2*%
X133935000Y-107960000D02*
X136875000Y-107960000D01*
X134265000Y-108740000D02*
X133935000Y-108740000D01*
X136875000Y-108740000D02*
X136875000Y-103300000D01*
X136875000Y-103300000D02*
X136545000Y-103300000D01*
X133935000Y-107720000D02*
X136875000Y-107720000D01*
X133935000Y-103300000D02*
X134265000Y-103300000D01*
X136545000Y-108740000D02*
X136875000Y-108740000D01*
X133935000Y-108740000D02*
X133935000Y-103300000D01*
X133935000Y-107840000D02*
X136875000Y-107840000D01*
%TO.C,U1*%
X141835000Y-93280000D02*
X141835000Y-96880000D01*
X141846522Y-96918478D02*
G75*
G03*
X146285000Y-95080000I1838478J1838478D01*
G01*
X146285001Y-95080000D02*
G75*
G03*
X141846522Y-93241522I-2600001J0D01*
G01*
%TO.C,D3*%
X141375000Y-108800000D02*
X141375000Y-103360000D01*
X138435000Y-108020000D02*
X141375000Y-108020000D01*
X141375000Y-103360000D02*
X141045000Y-103360000D01*
X141045000Y-108800000D02*
X141375000Y-108800000D01*
X138435000Y-107900000D02*
X141375000Y-107900000D01*
X138435000Y-107780000D02*
X141375000Y-107780000D01*
X138435000Y-103360000D02*
X138765000Y-103360000D01*
X138765000Y-108800000D02*
X138435000Y-108800000D01*
X138435000Y-108800000D02*
X138435000Y-103360000D01*
%TO.C,Q2*%
X139255000Y-92110000D02*
X139255000Y-88510000D01*
X134804999Y-90310000D02*
G75*
G03*
X139243478Y-92148478I2600001J0D01*
G01*
X139243478Y-88471522D02*
G75*
G03*
X134805000Y-90310000I-1838478J-1838478D01*
G01*
%TO.C,J2*%
X139760000Y-64725000D02*
X139760000Y-66055000D01*
X132020000Y-64725000D02*
X132020000Y-69925000D01*
X137160000Y-64725000D02*
X132020000Y-64725000D01*
X139760000Y-67325000D02*
X139760000Y-69925000D01*
X137160000Y-64725000D02*
X137160000Y-67325000D01*
X138430000Y-64725000D02*
X139760000Y-64725000D01*
X139760000Y-69925000D02*
X132020000Y-69925000D01*
X137160000Y-67325000D02*
X139760000Y-67325000D01*
%TO.C,R3*%
X128825000Y-85760000D02*
X128825000Y-81920000D01*
X126985000Y-85760000D02*
X126985000Y-81920000D01*
%TO.C,D1*%
X145875000Y-103060000D02*
X142935000Y-103060000D01*
X145875000Y-107720000D02*
X145875000Y-102280000D01*
X145875000Y-103300000D02*
X142935000Y-103300000D01*
X142935000Y-107720000D02*
X145875000Y-107720000D01*
X144405000Y-108740000D02*
X144405000Y-107720000D01*
X145875000Y-102280000D02*
X142935000Y-102280000D01*
X142935000Y-102280000D02*
X142935000Y-107720000D01*
X144405000Y-101260000D02*
X144405000Y-102280000D01*
X145875000Y-103180000D02*
X142935000Y-103180000D01*
%TO.C,C3*%
X133635000Y-74750000D02*
X137675000Y-74750000D01*
X137675000Y-71910000D02*
X133635000Y-71910000D01*
X137675000Y-74750000D02*
X137675000Y-71910000D01*
X132945000Y-73330000D02*
X133635000Y-73330000D01*
X133635000Y-71910000D02*
X133635000Y-74750000D01*
X138365000Y-73330000D02*
X137675000Y-73330000D01*
%TD*%
M02*
