%TF.GenerationSoftware,KiCad,Pcbnew,6.0.11+dfsg-1*%
%TF.CreationDate,2025-09-02T17:45:44-05:00*%
%TF.ProjectId,TinyFreq,54696e79-4672-4657-912e-6b696361645f,rev?*%
%TF.SameCoordinates,Original*%
%TF.FileFunction,Copper,L2,Bot*%
%TF.FilePolarity,Positive*%
%FSLAX46Y46*%
G04 Gerber Fmt 4.6, Leading zero omitted, Abs format (unit mm)*
G04 Created by KiCad (PCBNEW 6.0.11+dfsg-1) date 2025-09-02 17:45:44*
%MOMM*%
%LPD*%
G01*
G04 APERTURE LIST*
%TA.AperFunction,ComponentPad*%
%ADD10C,1.600000*%
%TD*%
%TA.AperFunction,ComponentPad*%
%ADD11O,1.600000X1.600000*%
%TD*%
%TA.AperFunction,ComponentPad*%
%ADD12C,1.400000*%
%TD*%
%TA.AperFunction,ComponentPad*%
%ADD13O,1.400000X1.400000*%
%TD*%
%TA.AperFunction,ComponentPad*%
%ADD14R,1.800000X1.800000*%
%TD*%
%TA.AperFunction,ComponentPad*%
%ADD15O,1.800000X1.800000*%
%TD*%
%TA.AperFunction,ComponentPad*%
%ADD16R,1.600000X1.600000*%
%TD*%
%TA.AperFunction,ComponentPad*%
%ADD17R,1.500000X1.050000*%
%TD*%
%TA.AperFunction,ComponentPad*%
%ADD18O,1.500000X1.050000*%
%TD*%
%TA.AperFunction,ConnectorPad*%
%ADD19R,2.500000X15.000000*%
%TD*%
%TA.AperFunction,ComponentPad*%
%ADD20R,1.700000X1.700000*%
%TD*%
%TA.AperFunction,ComponentPad*%
%ADD21O,1.700000X1.700000*%
%TD*%
%TA.AperFunction,ComponentPad*%
%ADD22R,2.200000X2.200000*%
%TD*%
%TA.AperFunction,ComponentPad*%
%ADD23O,2.200000X2.200000*%
%TD*%
%TA.AperFunction,ViaPad*%
%ADD24C,0.800000*%
%TD*%
%TA.AperFunction,Conductor*%
%ADD25C,0.250000*%
%TD*%
%TA.AperFunction,Conductor*%
%ADD26C,0.500000*%
%TD*%
%TA.AperFunction,Conductor*%
%ADD27C,1.000000*%
%TD*%
G04 APERTURE END LIST*
D10*
%TO.P,C2,1*%
%TO.N,Net-(C2-Pad1)*%
X139655000Y-98580000D03*
D11*
%TO.P,C2,2*%
%TO.N,Net-(C1-Pad1)*%
X132155000Y-98580000D03*
%TD*%
D12*
%TO.P,R4,1*%
%TO.N,Net-(J2-Pad5)*%
X143655000Y-85580000D03*
D13*
%TO.P,R4,2*%
%TO.N,Net-(C3-Pad1)*%
X143655000Y-90660000D03*
%TD*%
D12*
%TO.P,R2,1*%
%TO.N,Net-(Q2-Pad2)*%
X131405000Y-104980000D03*
D13*
%TO.P,R2,2*%
%TO.N,Net-(D2-Pad1)*%
X131405000Y-110060000D03*
%TD*%
D10*
%TO.P,C1,1*%
%TO.N,Net-(C1-Pad1)*%
X127905000Y-95250000D03*
D11*
%TO.P,C1,2*%
%TO.N,Net-(C1-Pad2)*%
X127905000Y-102750000D03*
%TD*%
D14*
%TO.P,D4,1,K*%
%TO.N,Net-(C2-Pad1)*%
X139655000Y-95080000D03*
D15*
%TO.P,D4,2,A*%
%TO.N,Net-(C1-Pad1)*%
X132035000Y-95080000D03*
%TD*%
D12*
%TO.P,R1,1*%
%TO.N,Net-(C1-Pad2)*%
X127505000Y-104980000D03*
D13*
%TO.P,R1,2*%
%TO.N,Net-(D3-Pad1)*%
X127505000Y-110060000D03*
%TD*%
D16*
%TO.P,U2,1,~{RESET}/PB5*%
%TO.N,Net-(J2-Pad5)*%
X131855000Y-76780000D03*
D11*
%TO.P,U2,2,XTAL1/PB3*%
%TO.N,unconnected-(U2-Pad2)*%
X131855000Y-79320000D03*
%TO.P,U2,3,XTAL2/PB4*%
%TO.N,unconnected-(U2-Pad3)*%
X131855000Y-81860000D03*
%TO.P,U2,4,GND*%
%TO.N,Net-(C1-Pad1)*%
X131855000Y-84400000D03*
%TO.P,U2,5,AREF/PB0*%
%TO.N,Net-(J2-Pad4)*%
X139475000Y-84400000D03*
%TO.P,U2,6,PB1*%
%TO.N,Net-(J2-Pad1)*%
X139475000Y-81860000D03*
%TO.P,U2,7,PB2*%
%TO.N,Net-(J2-Pad3)*%
X139475000Y-79320000D03*
%TO.P,U2,8,VCC*%
%TO.N,Net-(C3-Pad1)*%
X139475000Y-76780000D03*
%TD*%
D17*
%TO.P,Q1,1,S*%
%TO.N,Net-(C1-Pad1)*%
X128385000Y-89060000D03*
D18*
%TO.P,Q1,2,G*%
%TO.N,Net-(Q1-Pad2)*%
X128385000Y-90330000D03*
%TO.P,Q1,3,D*%
%TO.N,Net-(C1-Pad2)*%
X128385000Y-91600000D03*
%TD*%
D14*
%TO.P,D2,1,K*%
%TO.N,Net-(D2-Pad1)*%
X135405000Y-109830000D03*
D15*
%TO.P,D2,2,A*%
%TO.N,Net-(C1-Pad1)*%
X135405000Y-102210000D03*
%TD*%
D17*
%TO.P,U1,1,VO*%
%TO.N,Net-(C3-Pad1)*%
X143685000Y-93810000D03*
D18*
%TO.P,U1,2,GND*%
%TO.N,Net-(C1-Pad1)*%
X143685000Y-95080000D03*
%TO.P,U1,3,VI*%
%TO.N,Net-(C2-Pad1)*%
X143685000Y-96350000D03*
%TD*%
D19*
%TO.P,J1,1,A*%
%TO.N,Net-(D1-Pad2)*%
X145655000Y-123930000D03*
%TO.P,J1,2,B*%
%TO.N,unconnected-(J1-Pad2)*%
X142155000Y-123930000D03*
%TO.P,J1,3,C*%
%TO.N,Net-(J1-Pad11)*%
X136655000Y-123930000D03*
%TO.P,J1,4,D*%
%TO.N,Net-(D2-Pad1)*%
X133155000Y-123930000D03*
%TO.P,J1,5,E*%
%TO.N,unconnected-(J1-Pad5)*%
X129655000Y-123930000D03*
%TO.P,J1,6,F*%
%TO.N,Net-(D3-Pad1)*%
X126155000Y-123930000D03*
%TD*%
D14*
%TO.P,D3,1,K*%
%TO.N,Net-(D3-Pad1)*%
X139905000Y-109890000D03*
D15*
%TO.P,D3,2,A*%
%TO.N,Net-(C1-Pad1)*%
X139905000Y-102270000D03*
%TD*%
D17*
%TO.P,Q2,1,S*%
%TO.N,Net-(C1-Pad1)*%
X137405000Y-91580000D03*
D18*
%TO.P,Q2,2,G*%
%TO.N,Net-(Q2-Pad2)*%
X137405000Y-90310000D03*
%TO.P,Q2,3,D*%
%TO.N,Net-(J2-Pad3)*%
X137405000Y-89040000D03*
%TD*%
D20*
%TO.P,J2,1,Pin_1*%
%TO.N,Net-(J2-Pad1)*%
X138430000Y-66055000D03*
D21*
%TO.P,J2,2,Pin_2*%
%TO.N,Net-(C3-Pad1)*%
X138430000Y-68595000D03*
%TO.P,J2,3,Pin_3*%
%TO.N,Net-(J2-Pad3)*%
X135890000Y-66055000D03*
%TO.P,J2,4,Pin_4*%
%TO.N,Net-(J2-Pad4)*%
X135890000Y-68595000D03*
%TO.P,J2,5,Pin_5*%
%TO.N,Net-(J2-Pad5)*%
X133350000Y-66055000D03*
%TO.P,J2,6,Pin_6*%
%TO.N,Net-(C1-Pad1)*%
X133350000Y-68595000D03*
%TD*%
D12*
%TO.P,R3,1*%
%TO.N,Net-(Q1-Pad2)*%
X127905000Y-86380000D03*
D13*
%TO.P,R3,2*%
%TO.N,Net-(J2-Pad1)*%
X127905000Y-81300000D03*
%TD*%
D22*
%TO.P,D1,1,K*%
%TO.N,Net-(C2-Pad1)*%
X144405000Y-99920000D03*
D23*
%TO.P,D1,2,A*%
%TO.N,Net-(D1-Pad2)*%
X144405000Y-110080000D03*
%TD*%
D10*
%TO.P,C3,1*%
%TO.N,Net-(C3-Pad1)*%
X139405000Y-73330000D03*
D11*
%TO.P,C3,2*%
%TO.N,Net-(C1-Pad1)*%
X131905000Y-73330000D03*
%TD*%
D24*
%TO.N,Net-(C1-Pad1)*%
X133505000Y-111430000D03*
%TO.N,Net-(J1-Pad11)*%
X139500000Y-116080000D03*
%TO.N,Net-(J1-Pad12)*%
X139485000Y-113000000D03*
X132405000Y-113000000D03*
%TD*%
D25*
%TO.N,Net-(J2-Pad1)*%
X138165000Y-80550000D02*
X139475000Y-81860000D01*
X127905000Y-81250000D02*
X128605000Y-80550000D01*
X128605000Y-80550000D02*
X138165000Y-80550000D01*
%TO.N,Net-(J2-Pad3)*%
X137065000Y-76910000D02*
X137065000Y-67230000D01*
X138445000Y-89040000D02*
X141155000Y-86330000D01*
X141155000Y-81000000D02*
X139475000Y-79320000D01*
X137405000Y-89040000D02*
X138445000Y-89040000D01*
X137065000Y-67230000D02*
X135890000Y-66055000D01*
X141155000Y-86330000D02*
X141155000Y-81000000D01*
X139475000Y-79320000D02*
X137065000Y-76910000D01*
%TO.N,Net-(D2-Pad1)*%
X133155000Y-116655000D02*
X133155000Y-123930000D01*
X135255000Y-110040000D02*
X135405000Y-109890000D01*
D26*
X131405000Y-110040000D02*
X131405000Y-114905000D01*
X131405000Y-114905000D02*
X133155000Y-116655000D01*
X131405000Y-110040000D02*
X135255000Y-110040000D01*
%TO.N,Net-(D3-Pad1)*%
X126155000Y-111425000D02*
X127500000Y-110080000D01*
X127500000Y-110080000D02*
X130000000Y-107580000D01*
X137595000Y-107580000D02*
X139905000Y-109890000D01*
X130000000Y-107580000D02*
X137595000Y-107580000D01*
X126155000Y-123930000D02*
X126155000Y-111425000D01*
D25*
%TO.N,Net-(J1-Pad11)*%
X136655000Y-116845000D02*
X136655000Y-123930000D01*
D26*
X137420000Y-116080000D02*
X136655000Y-116845000D01*
X139500000Y-116080000D02*
X137420000Y-116080000D01*
%TO.N,Net-(J1-Pad12)*%
X132405000Y-113000000D02*
X139485000Y-113000000D01*
%TO.N,Net-(C3-Pad1)*%
X142155000Y-89160000D02*
X143655000Y-90660000D01*
X142155000Y-79460000D02*
X142155000Y-89160000D01*
X139475000Y-76780000D02*
X142155000Y-79460000D01*
D27*
%TO.N,Net-(D1-Pad2)*%
X145655000Y-111235000D02*
X144500000Y-110080000D01*
X145655000Y-123930000D02*
X145655000Y-111235000D01*
%TD*%
%TA.AperFunction,Conductor*%
%TO.N,Net-(C1-Pad1)*%
G36*
X132985631Y-64528502D02*
G01*
X133032124Y-64582158D01*
X133042228Y-64652432D01*
X133012734Y-64717012D01*
X132956655Y-64754265D01*
X132821756Y-64798357D01*
X132623607Y-64901507D01*
X132619474Y-64904610D01*
X132619471Y-64904612D01*
X132449100Y-65032530D01*
X132444965Y-65035635D01*
X132405525Y-65076907D01*
X132351280Y-65133671D01*
X132290629Y-65197138D01*
X132164743Y-65381680D01*
X132070688Y-65584305D01*
X132010989Y-65799570D01*
X131987251Y-66021695D01*
X132000110Y-66244715D01*
X132001247Y-66249761D01*
X132001248Y-66249767D01*
X132025304Y-66356508D01*
X132049222Y-66462639D01*
X132133266Y-66669616D01*
X132184942Y-66753944D01*
X132247291Y-66855688D01*
X132249987Y-66860088D01*
X132396250Y-67028938D01*
X132568126Y-67171632D01*
X132641445Y-67214476D01*
X132641955Y-67214774D01*
X132690679Y-67266412D01*
X132703750Y-67336195D01*
X132677019Y-67401967D01*
X132636562Y-67435327D01*
X132628457Y-67439546D01*
X132619738Y-67445036D01*
X132449433Y-67572905D01*
X132441726Y-67579748D01*
X132294590Y-67733717D01*
X132288104Y-67741727D01*
X132168098Y-67917649D01*
X132163000Y-67926623D01*
X132073338Y-68119783D01*
X132069775Y-68129470D01*
X132014389Y-68329183D01*
X132015912Y-68337607D01*
X132028292Y-68341000D01*
X133478000Y-68341000D01*
X133546121Y-68361002D01*
X133592614Y-68414658D01*
X133604000Y-68467000D01*
X133604000Y-69913517D01*
X133608064Y-69927359D01*
X133621478Y-69929393D01*
X133628184Y-69928534D01*
X133638262Y-69926392D01*
X133842255Y-69865191D01*
X133851842Y-69861433D01*
X134043095Y-69767739D01*
X134051945Y-69762464D01*
X134225328Y-69638792D01*
X134233200Y-69632139D01*
X134384052Y-69481812D01*
X134390730Y-69473965D01*
X134518022Y-69296819D01*
X134519279Y-69297722D01*
X134566373Y-69254362D01*
X134636311Y-69242145D01*
X134701751Y-69269678D01*
X134729579Y-69301511D01*
X134789987Y-69400088D01*
X134936250Y-69568938D01*
X135108126Y-69711632D01*
X135301000Y-69824338D01*
X135305825Y-69826180D01*
X135305826Y-69826181D01*
X135348724Y-69842562D01*
X135509692Y-69904030D01*
X135514760Y-69905061D01*
X135514763Y-69905062D01*
X135609862Y-69924410D01*
X135728597Y-69948567D01*
X135733772Y-69948757D01*
X135733774Y-69948757D01*
X135946673Y-69956564D01*
X135946677Y-69956564D01*
X135951837Y-69956753D01*
X135956957Y-69956097D01*
X135956959Y-69956097D01*
X136168288Y-69929025D01*
X136168289Y-69929025D01*
X136173416Y-69928368D01*
X136178367Y-69926883D01*
X136178370Y-69926882D01*
X136269293Y-69899604D01*
X136340288Y-69899188D01*
X136400239Y-69937220D01*
X136430110Y-70001627D01*
X136431500Y-70020290D01*
X136431500Y-76831233D01*
X136430973Y-76842416D01*
X136429298Y-76849909D01*
X136429547Y-76857835D01*
X136429547Y-76857836D01*
X136431438Y-76917986D01*
X136431500Y-76921945D01*
X136431500Y-76949856D01*
X136431997Y-76953790D01*
X136431997Y-76953791D01*
X136432005Y-76953856D01*
X136432938Y-76965693D01*
X136434327Y-77009889D01*
X136439978Y-77029339D01*
X136443987Y-77048700D01*
X136446526Y-77068797D01*
X136449445Y-77076168D01*
X136449445Y-77076170D01*
X136462804Y-77109912D01*
X136466649Y-77121142D01*
X136478982Y-77163593D01*
X136483015Y-77170412D01*
X136483017Y-77170417D01*
X136489293Y-77181028D01*
X136497988Y-77198776D01*
X136505448Y-77217617D01*
X136510110Y-77224033D01*
X136510110Y-77224034D01*
X136531436Y-77253387D01*
X136537952Y-77263307D01*
X136560458Y-77301362D01*
X136574779Y-77315683D01*
X136587619Y-77330716D01*
X136599528Y-77347107D01*
X136605634Y-77352158D01*
X136633605Y-77375298D01*
X136642384Y-77383288D01*
X138165848Y-78906752D01*
X138199874Y-78969064D01*
X138198459Y-79028459D01*
X138182882Y-79086591D01*
X138182881Y-79086598D01*
X138181457Y-79091913D01*
X138161502Y-79320000D01*
X138181457Y-79548087D01*
X138237674Y-79757890D01*
X138235984Y-79828865D01*
X138196190Y-79887661D01*
X138130926Y-79915609D01*
X138115967Y-79916500D01*
X133214033Y-79916500D01*
X133145912Y-79896498D01*
X133099419Y-79842842D01*
X133089315Y-79772568D01*
X133092324Y-79757897D01*
X133148543Y-79548087D01*
X133168498Y-79320000D01*
X133148543Y-79091913D01*
X133139197Y-79057032D01*
X133090707Y-78876067D01*
X133090706Y-78876065D01*
X133089284Y-78870757D01*
X133086961Y-78865775D01*
X132994849Y-78668238D01*
X132994846Y-78668233D01*
X132992523Y-78663251D01*
X132861198Y-78475700D01*
X132699300Y-78313802D01*
X132694789Y-78310643D01*
X132690576Y-78307108D01*
X132691527Y-78305974D01*
X132651529Y-78255929D01*
X132644224Y-78185310D01*
X132676258Y-78121951D01*
X132737462Y-78085970D01*
X132754517Y-78082918D01*
X132765316Y-78081745D01*
X132901705Y-78030615D01*
X133018261Y-77943261D01*
X133105615Y-77826705D01*
X133156745Y-77690316D01*
X133163500Y-77628134D01*
X133163500Y-75931866D01*
X133156745Y-75869684D01*
X133105615Y-75733295D01*
X133018261Y-75616739D01*
X132901705Y-75529385D01*
X132765316Y-75478255D01*
X132703134Y-75471500D01*
X131006866Y-75471500D01*
X130944684Y-75478255D01*
X130808295Y-75529385D01*
X130691739Y-75616739D01*
X130604385Y-75733295D01*
X130553255Y-75869684D01*
X130546500Y-75931866D01*
X130546500Y-77628134D01*
X130553255Y-77690316D01*
X130604385Y-77826705D01*
X130691739Y-77943261D01*
X130808295Y-78030615D01*
X130944684Y-78081745D01*
X130955474Y-78082917D01*
X130957606Y-78083803D01*
X130960222Y-78084425D01*
X130960121Y-78084848D01*
X131021035Y-78110155D01*
X131061463Y-78168517D01*
X131063922Y-78239471D01*
X131027629Y-78300490D01*
X131018969Y-78307489D01*
X131015207Y-78310646D01*
X131010700Y-78313802D01*
X130848802Y-78475700D01*
X130717477Y-78663251D01*
X130715154Y-78668233D01*
X130715151Y-78668238D01*
X130623039Y-78865775D01*
X130620716Y-78870757D01*
X130619294Y-78876065D01*
X130619293Y-78876067D01*
X130570803Y-79057032D01*
X130561457Y-79091913D01*
X130541502Y-79320000D01*
X130561457Y-79548087D01*
X130617674Y-79757890D01*
X130615984Y-79828865D01*
X130576190Y-79887661D01*
X130510926Y-79915609D01*
X130495967Y-79916500D01*
X128683763Y-79916500D01*
X128672579Y-79915973D01*
X128665091Y-79914299D01*
X128657168Y-79914548D01*
X128597033Y-79916438D01*
X128593075Y-79916500D01*
X128565144Y-79916500D01*
X128561229Y-79916995D01*
X128561225Y-79916995D01*
X128561167Y-79917003D01*
X128561138Y-79917006D01*
X128549296Y-79917939D01*
X128505110Y-79919327D01*
X128487744Y-79924372D01*
X128485658Y-79924978D01*
X128466306Y-79928986D01*
X128454068Y-79930532D01*
X128454066Y-79930533D01*
X128446203Y-79931526D01*
X128405086Y-79947806D01*
X128393885Y-79951641D01*
X128351406Y-79963982D01*
X128344587Y-79968015D01*
X128344582Y-79968017D01*
X128333971Y-79974293D01*
X128316221Y-79982990D01*
X128297383Y-79990448D01*
X128290967Y-79995109D01*
X128290966Y-79995110D01*
X128261625Y-80016428D01*
X128251701Y-80022947D01*
X128220460Y-80041422D01*
X128220455Y-80041426D01*
X128213637Y-80045458D01*
X128199313Y-80059782D01*
X128184283Y-80072620D01*
X128174853Y-80079471D01*
X128107985Y-80103327D01*
X128089814Y-80103053D01*
X127910475Y-80087363D01*
X127905000Y-80086884D01*
X127694345Y-80105314D01*
X127689032Y-80106738D01*
X127689030Y-80106738D01*
X127495400Y-80158621D01*
X127495398Y-80158622D01*
X127490090Y-80160044D01*
X127485109Y-80162366D01*
X127485108Y-80162367D01*
X127303423Y-80247088D01*
X127303420Y-80247090D01*
X127298442Y-80249411D01*
X127125224Y-80370699D01*
X126975699Y-80520224D01*
X126854411Y-80693442D01*
X126765044Y-80885090D01*
X126710314Y-81089345D01*
X126691884Y-81300000D01*
X126710314Y-81510655D01*
X126711738Y-81515968D01*
X126711738Y-81515970D01*
X126725803Y-81568459D01*
X126765044Y-81714910D01*
X126767366Y-81719891D01*
X126767367Y-81719892D01*
X126835254Y-81865475D01*
X126854411Y-81906558D01*
X126975699Y-82079776D01*
X127125224Y-82229301D01*
X127298442Y-82350589D01*
X127303420Y-82352910D01*
X127303423Y-82352912D01*
X127485108Y-82437633D01*
X127490090Y-82439956D01*
X127495398Y-82441378D01*
X127495400Y-82441379D01*
X127689030Y-82493262D01*
X127689032Y-82493262D01*
X127694345Y-82494686D01*
X127905000Y-82513116D01*
X128115655Y-82494686D01*
X128120968Y-82493262D01*
X128120970Y-82493262D01*
X128314600Y-82441379D01*
X128314602Y-82441378D01*
X128319910Y-82439956D01*
X128324892Y-82437633D01*
X128506577Y-82352912D01*
X128506580Y-82352910D01*
X128511558Y-82350589D01*
X128684776Y-82229301D01*
X128834301Y-82079776D01*
X128955589Y-81906558D01*
X128974747Y-81865475D01*
X129042633Y-81719892D01*
X129042634Y-81719891D01*
X129044956Y-81714910D01*
X129084198Y-81568459D01*
X129098262Y-81515970D01*
X129098262Y-81515968D01*
X129099686Y-81510655D01*
X129118116Y-81300000D01*
X129120369Y-81300197D01*
X129137639Y-81241379D01*
X129191295Y-81194886D01*
X129243637Y-81183500D01*
X130528907Y-81183500D01*
X130597028Y-81203502D01*
X130643521Y-81257158D01*
X130653625Y-81327432D01*
X130643102Y-81362749D01*
X130620716Y-81410757D01*
X130619294Y-81416065D01*
X130619293Y-81416067D01*
X130562883Y-81626591D01*
X130561457Y-81631913D01*
X130541502Y-81860000D01*
X130561457Y-82088087D01*
X130620716Y-82309243D01*
X130623039Y-82314224D01*
X130623039Y-82314225D01*
X130715151Y-82511762D01*
X130715154Y-82511767D01*
X130717477Y-82516749D01*
X130848802Y-82704300D01*
X131010700Y-82866198D01*
X131015208Y-82869355D01*
X131015211Y-82869357D01*
X131093389Y-82924098D01*
X131198251Y-82997523D01*
X131203233Y-82999846D01*
X131203238Y-82999849D01*
X131238049Y-83016081D01*
X131291334Y-83062998D01*
X131310795Y-83131275D01*
X131290253Y-83199235D01*
X131238049Y-83244471D01*
X131203489Y-83260586D01*
X131193993Y-83266069D01*
X131015533Y-83391028D01*
X131007125Y-83398084D01*
X130853084Y-83552125D01*
X130846028Y-83560533D01*
X130721069Y-83738993D01*
X130715586Y-83748489D01*
X130623510Y-83945947D01*
X130619764Y-83956239D01*
X130573606Y-84128503D01*
X130573942Y-84142599D01*
X130581884Y-84146000D01*
X133122967Y-84146000D01*
X133136498Y-84142027D01*
X133137727Y-84133478D01*
X133090236Y-83956239D01*
X133086490Y-83945947D01*
X132994414Y-83748489D01*
X132988931Y-83738993D01*
X132863972Y-83560533D01*
X132856916Y-83552125D01*
X132702875Y-83398084D01*
X132694467Y-83391028D01*
X132516007Y-83266069D01*
X132506511Y-83260586D01*
X132471951Y-83244471D01*
X132418666Y-83197554D01*
X132399205Y-83129277D01*
X132419747Y-83061317D01*
X132471951Y-83016081D01*
X132506762Y-82999849D01*
X132506767Y-82999846D01*
X132511749Y-82997523D01*
X132616611Y-82924098D01*
X132694789Y-82869357D01*
X132694792Y-82869355D01*
X132699300Y-82866198D01*
X132861198Y-82704300D01*
X132992523Y-82516749D01*
X132994846Y-82511767D01*
X132994849Y-82511762D01*
X133086961Y-82314225D01*
X133086961Y-82314224D01*
X133089284Y-82309243D01*
X133148543Y-82088087D01*
X133168498Y-81860000D01*
X133148543Y-81631913D01*
X133147117Y-81626591D01*
X133090707Y-81416067D01*
X133090706Y-81416065D01*
X133089284Y-81410757D01*
X133066898Y-81362750D01*
X133056237Y-81292558D01*
X133085217Y-81227746D01*
X133144637Y-81188889D01*
X133181093Y-81183500D01*
X137850406Y-81183500D01*
X137918527Y-81203502D01*
X137939501Y-81220405D01*
X138165848Y-81446752D01*
X138199874Y-81509064D01*
X138198459Y-81568459D01*
X138182882Y-81626591D01*
X138182881Y-81626598D01*
X138181457Y-81631913D01*
X138161502Y-81860000D01*
X138181457Y-82088087D01*
X138240716Y-82309243D01*
X138243039Y-82314224D01*
X138243039Y-82314225D01*
X138335151Y-82511762D01*
X138335154Y-82511767D01*
X138337477Y-82516749D01*
X138468802Y-82704300D01*
X138630700Y-82866198D01*
X138635208Y-82869355D01*
X138635211Y-82869357D01*
X138713389Y-82924098D01*
X138818251Y-82997523D01*
X138823233Y-82999846D01*
X138823238Y-82999849D01*
X138857457Y-83015805D01*
X138910742Y-83062722D01*
X138930203Y-83130999D01*
X138909661Y-83198959D01*
X138857457Y-83244195D01*
X138823238Y-83260151D01*
X138823233Y-83260154D01*
X138818251Y-83262477D01*
X138713389Y-83335902D01*
X138635211Y-83390643D01*
X138635208Y-83390645D01*
X138630700Y-83393802D01*
X138468802Y-83555700D01*
X138337477Y-83743251D01*
X138335154Y-83748233D01*
X138335151Y-83748238D01*
X138335034Y-83748489D01*
X138240716Y-83950757D01*
X138181457Y-84171913D01*
X138161502Y-84400000D01*
X138181457Y-84628087D01*
X138182881Y-84633400D01*
X138182881Y-84633402D01*
X138226538Y-84796329D01*
X138240716Y-84849243D01*
X138243039Y-84854224D01*
X138243039Y-84854225D01*
X138335151Y-85051762D01*
X138335154Y-85051767D01*
X138337477Y-85056749D01*
X138340634Y-85061257D01*
X138464826Y-85238621D01*
X138468802Y-85244300D01*
X138630700Y-85406198D01*
X138635208Y-85409355D01*
X138635211Y-85409357D01*
X138689742Y-85447540D01*
X138818251Y-85537523D01*
X138823233Y-85539846D01*
X138823238Y-85539849D01*
X139019765Y-85631490D01*
X139025757Y-85634284D01*
X139031065Y-85635706D01*
X139031067Y-85635707D01*
X139241598Y-85692119D01*
X139241600Y-85692119D01*
X139246913Y-85693543D01*
X139475000Y-85713498D01*
X139703087Y-85693543D01*
X139708400Y-85692119D01*
X139708402Y-85692119D01*
X139918933Y-85635707D01*
X139918935Y-85635706D01*
X139924243Y-85634284D01*
X139930235Y-85631490D01*
X140126762Y-85539849D01*
X140126767Y-85539846D01*
X140131749Y-85537523D01*
X140319300Y-85406198D01*
X140319996Y-85407192D01*
X140379546Y-85381128D01*
X140449651Y-85392344D01*
X140502564Y-85439681D01*
X140521500Y-85506114D01*
X140521500Y-86015406D01*
X140501498Y-86083527D01*
X140484595Y-86104501D01*
X138401268Y-88187828D01*
X138338956Y-88221854D01*
X138268141Y-88216789D01*
X138231181Y-88195254D01*
X138221437Y-88187078D01*
X138216719Y-88183119D01*
X138211327Y-88180155D01*
X138211323Y-88180152D01*
X138044506Y-88088444D01*
X138039109Y-88085477D01*
X137845916Y-88024193D01*
X137839799Y-88023507D01*
X137839795Y-88023506D01*
X137765652Y-88015190D01*
X137688183Y-88006500D01*
X137128996Y-88006500D01*
X136978287Y-88021277D01*
X136784258Y-88079858D01*
X136605302Y-88175010D01*
X136600528Y-88178904D01*
X136600526Y-88178905D01*
X136554076Y-88216789D01*
X136448237Y-88303110D01*
X136444310Y-88307857D01*
X136444308Y-88307859D01*
X136322973Y-88454528D01*
X136322971Y-88454531D01*
X136319044Y-88459278D01*
X136222644Y-88637565D01*
X136220822Y-88643452D01*
X136170505Y-88806000D01*
X136162710Y-88831180D01*
X136141524Y-89032750D01*
X136142083Y-89038890D01*
X136156403Y-89196233D01*
X136159894Y-89234596D01*
X136161632Y-89240502D01*
X136161633Y-89240506D01*
X136199704Y-89369858D01*
X136217119Y-89429029D01*
X136219972Y-89434486D01*
X136219973Y-89434489D01*
X136236879Y-89466827D01*
X136310923Y-89608460D01*
X136310923Y-89608462D01*
X136311019Y-89608645D01*
X136310984Y-89608663D01*
X136330889Y-89674441D01*
X136315729Y-89735409D01*
X136222644Y-89907565D01*
X136218494Y-89920971D01*
X136175946Y-90058423D01*
X136162710Y-90101180D01*
X136162066Y-90107305D01*
X136162066Y-90107306D01*
X136161215Y-90115404D01*
X136141524Y-90302750D01*
X136143903Y-90328890D01*
X136154866Y-90449345D01*
X136159894Y-90504596D01*
X136161632Y-90510502D01*
X136161633Y-90510506D01*
X136171699Y-90544707D01*
X136216069Y-90695461D01*
X136217119Y-90699029D01*
X136216441Y-90699229D01*
X136222956Y-90765273D01*
X136209680Y-90802323D01*
X136201679Y-90816937D01*
X136156522Y-90937394D01*
X136152895Y-90952649D01*
X136147369Y-91003514D01*
X136147000Y-91010328D01*
X136147000Y-91307885D01*
X136151475Y-91323124D01*
X136152865Y-91324329D01*
X136160548Y-91326000D01*
X136958758Y-91326000D01*
X136972803Y-91326785D01*
X137121817Y-91343500D01*
X137681004Y-91343500D01*
X137831713Y-91328723D01*
X137834002Y-91328032D01*
X137854724Y-91326000D01*
X138644884Y-91326000D01*
X138660123Y-91321525D01*
X138661328Y-91320135D01*
X138662999Y-91312452D01*
X138662999Y-91010331D01*
X138662629Y-91003510D01*
X138657105Y-90952648D01*
X138653479Y-90937396D01*
X138608323Y-90816944D01*
X138599886Y-90801534D01*
X138584716Y-90732177D01*
X138590040Y-90703764D01*
X138601893Y-90665475D01*
X138647290Y-90518820D01*
X138668476Y-90317250D01*
X138651926Y-90135404D01*
X138650665Y-90121543D01*
X138650664Y-90121540D01*
X138650106Y-90115404D01*
X138592881Y-89920971D01*
X138588951Y-89913452D01*
X138545889Y-89831083D01*
X138532055Y-89761447D01*
X138558065Y-89695387D01*
X138611168Y-89655556D01*
X138644912Y-89642196D01*
X138656142Y-89638351D01*
X138690983Y-89628229D01*
X138690984Y-89628229D01*
X138698593Y-89626018D01*
X138705412Y-89621985D01*
X138705417Y-89621983D01*
X138716028Y-89615707D01*
X138733776Y-89607012D01*
X138752617Y-89599552D01*
X138788387Y-89573564D01*
X138798307Y-89567048D01*
X138829535Y-89548580D01*
X138829538Y-89548578D01*
X138836362Y-89544542D01*
X138850683Y-89530221D01*
X138865717Y-89517380D01*
X138875694Y-89510131D01*
X138882107Y-89505472D01*
X138910298Y-89471395D01*
X138918288Y-89462616D01*
X141181405Y-87199500D01*
X141243717Y-87165474D01*
X141314533Y-87170539D01*
X141371368Y-87213086D01*
X141396179Y-87279606D01*
X141396500Y-87288595D01*
X141396500Y-89092930D01*
X141395067Y-89111880D01*
X141391801Y-89133349D01*
X141392394Y-89140641D01*
X141392394Y-89140644D01*
X141396085Y-89186018D01*
X141396500Y-89196233D01*
X141396500Y-89204293D01*
X141396925Y-89207937D01*
X141399789Y-89232507D01*
X141400222Y-89236882D01*
X141406140Y-89309637D01*
X141408396Y-89316601D01*
X141409587Y-89322560D01*
X141410971Y-89328415D01*
X141411818Y-89335681D01*
X141436735Y-89404327D01*
X141438152Y-89408455D01*
X141456474Y-89465010D01*
X141460649Y-89477899D01*
X141464445Y-89484154D01*
X141466951Y-89489628D01*
X141469670Y-89495058D01*
X141472167Y-89501937D01*
X141476180Y-89508057D01*
X141476180Y-89508058D01*
X141512186Y-89562976D01*
X141514523Y-89566680D01*
X141552405Y-89629107D01*
X141556121Y-89633315D01*
X141556122Y-89633316D01*
X141559803Y-89637484D01*
X141559776Y-89637508D01*
X141562429Y-89640500D01*
X141565132Y-89643733D01*
X141569144Y-89649852D01*
X141574456Y-89654884D01*
X141625383Y-89703128D01*
X141627825Y-89705506D01*
X142411635Y-90489316D01*
X142445661Y-90551628D01*
X142448061Y-90589392D01*
X142441884Y-90660000D01*
X142460314Y-90870655D01*
X142461738Y-90875968D01*
X142461738Y-90875970D01*
X142503369Y-91031337D01*
X142515044Y-91074910D01*
X142517366Y-91079891D01*
X142517367Y-91079892D01*
X142581246Y-91216880D01*
X142604411Y-91266558D01*
X142725699Y-91439776D01*
X142875224Y-91589301D01*
X143048442Y-91710589D01*
X143053420Y-91712910D01*
X143053423Y-91712912D01*
X143215430Y-91788457D01*
X143240090Y-91799956D01*
X143245398Y-91801378D01*
X143245400Y-91801379D01*
X143439030Y-91853262D01*
X143439032Y-91853262D01*
X143444345Y-91854686D01*
X143655000Y-91873116D01*
X143865655Y-91854686D01*
X143870968Y-91853262D01*
X143870970Y-91853262D01*
X144064600Y-91801379D01*
X144064602Y-91801378D01*
X144069910Y-91799956D01*
X144094570Y-91788457D01*
X144256577Y-91712912D01*
X144256580Y-91712910D01*
X144261558Y-91710589D01*
X144434776Y-91589301D01*
X144584301Y-91439776D01*
X144705589Y-91266558D01*
X144728755Y-91216880D01*
X144792633Y-91079892D01*
X144792634Y-91079891D01*
X144794956Y-91074910D01*
X144806632Y-91031337D01*
X144848262Y-90875970D01*
X144848262Y-90875968D01*
X144849686Y-90870655D01*
X144868116Y-90660000D01*
X144849686Y-90449345D01*
X144794956Y-90245090D01*
X144741053Y-90129494D01*
X144707912Y-90058423D01*
X144707910Y-90058420D01*
X144705589Y-90053442D01*
X144584301Y-89880224D01*
X144434776Y-89730699D01*
X144261558Y-89609411D01*
X144256580Y-89607090D01*
X144256577Y-89607088D01*
X144074892Y-89522367D01*
X144074891Y-89522366D01*
X144069910Y-89520044D01*
X144064602Y-89518622D01*
X144064600Y-89518621D01*
X143870970Y-89466738D01*
X143870968Y-89466738D01*
X143865655Y-89465314D01*
X143655000Y-89446884D01*
X143649525Y-89447363D01*
X143649524Y-89447363D01*
X143584392Y-89453061D01*
X143514787Y-89439071D01*
X143484316Y-89416635D01*
X142950405Y-88882724D01*
X142916379Y-88820412D01*
X142913500Y-88793629D01*
X142913500Y-86765445D01*
X142933502Y-86697324D01*
X142987158Y-86650831D01*
X143057432Y-86640727D01*
X143092750Y-86651250D01*
X143191556Y-86697324D01*
X143240090Y-86719956D01*
X143245398Y-86721378D01*
X143245400Y-86721379D01*
X143439030Y-86773262D01*
X143439032Y-86773262D01*
X143444345Y-86774686D01*
X143655000Y-86793116D01*
X143865655Y-86774686D01*
X143870968Y-86773262D01*
X143870970Y-86773262D01*
X144064600Y-86721379D01*
X144064602Y-86721378D01*
X144069910Y-86719956D01*
X144074892Y-86717633D01*
X144256577Y-86632912D01*
X144256580Y-86632910D01*
X144261558Y-86630589D01*
X144434776Y-86509301D01*
X144584301Y-86359776D01*
X144705589Y-86186558D01*
X144711061Y-86174825D01*
X144792633Y-85999892D01*
X144792634Y-85999891D01*
X144794956Y-85994910D01*
X144801524Y-85970400D01*
X144848262Y-85795970D01*
X144848262Y-85795968D01*
X144849686Y-85790655D01*
X144868116Y-85580000D01*
X144849686Y-85369345D01*
X144838363Y-85327088D01*
X144796379Y-85170400D01*
X144796378Y-85170398D01*
X144794956Y-85165090D01*
X144746538Y-85061257D01*
X144707912Y-84978423D01*
X144707910Y-84978420D01*
X144705589Y-84973442D01*
X144584301Y-84800224D01*
X144434776Y-84650699D01*
X144261558Y-84529411D01*
X144256580Y-84527090D01*
X144256577Y-84527088D01*
X144074892Y-84442367D01*
X144074891Y-84442366D01*
X144069910Y-84440044D01*
X144064602Y-84438622D01*
X144064600Y-84438621D01*
X143870970Y-84386738D01*
X143870968Y-84386738D01*
X143865655Y-84385314D01*
X143655000Y-84366884D01*
X143444345Y-84385314D01*
X143439032Y-84386738D01*
X143439030Y-84386738D01*
X143245400Y-84438621D01*
X143245398Y-84438622D01*
X143240090Y-84440044D01*
X143235109Y-84442366D01*
X143235108Y-84442367D01*
X143092750Y-84508750D01*
X143022558Y-84519411D01*
X142957746Y-84490431D01*
X142918889Y-84431011D01*
X142913500Y-84394555D01*
X142913500Y-79527063D01*
X142914933Y-79508114D01*
X142917097Y-79493886D01*
X142918198Y-79486651D01*
X142913915Y-79433990D01*
X142913500Y-79423777D01*
X142913500Y-79415707D01*
X142913078Y-79412087D01*
X142913077Y-79412069D01*
X142910208Y-79387461D01*
X142909775Y-79383086D01*
X142909656Y-79381615D01*
X142905948Y-79336035D01*
X142904454Y-79317661D01*
X142904453Y-79317658D01*
X142903860Y-79310363D01*
X142901604Y-79303399D01*
X142900413Y-79297440D01*
X142899029Y-79291585D01*
X142898182Y-79284319D01*
X142873265Y-79215673D01*
X142871848Y-79211545D01*
X142851607Y-79149064D01*
X142851606Y-79149062D01*
X142849351Y-79142101D01*
X142845555Y-79135846D01*
X142843049Y-79130372D01*
X142840330Y-79124942D01*
X142837833Y-79118063D01*
X142797809Y-79057016D01*
X142795472Y-79053312D01*
X142760509Y-78995693D01*
X142760505Y-78995688D01*
X142757595Y-78990892D01*
X142750197Y-78982516D01*
X142750223Y-78982493D01*
X142747574Y-78979503D01*
X142744866Y-78976264D01*
X142740856Y-78970148D01*
X142735549Y-78965121D01*
X142735546Y-78965117D01*
X142684617Y-78916872D01*
X142682175Y-78914494D01*
X140810671Y-77042990D01*
X140776645Y-76980678D01*
X140774245Y-76942913D01*
X140788019Y-76785475D01*
X140788498Y-76780000D01*
X140768543Y-76551913D01*
X140709284Y-76330757D01*
X140706961Y-76325775D01*
X140614849Y-76128238D01*
X140614846Y-76128233D01*
X140612523Y-76123251D01*
X140481198Y-75935700D01*
X140319300Y-75773802D01*
X140314792Y-75770645D01*
X140314789Y-75770643D01*
X140236611Y-75715902D01*
X140131749Y-75642477D01*
X140126767Y-75640154D01*
X140126762Y-75640151D01*
X139929225Y-75548039D01*
X139929224Y-75548039D01*
X139924243Y-75545716D01*
X139918935Y-75544294D01*
X139918933Y-75544293D01*
X139708402Y-75487881D01*
X139708400Y-75487881D01*
X139703087Y-75486457D01*
X139475000Y-75466502D01*
X139246913Y-75486457D01*
X139241600Y-75487881D01*
X139241598Y-75487881D01*
X139031067Y-75544293D01*
X139031065Y-75544294D01*
X139025757Y-75545716D01*
X139020776Y-75548039D01*
X139020775Y-75548039D01*
X138823238Y-75640151D01*
X138823233Y-75640154D01*
X138818251Y-75642477D01*
X138713389Y-75715902D01*
X138635211Y-75770643D01*
X138635208Y-75770645D01*
X138630700Y-75773802D01*
X138468802Y-75935700D01*
X138337477Y-76123251D01*
X138335154Y-76128233D01*
X138335151Y-76128238D01*
X138243039Y-76325775D01*
X138240716Y-76330757D01*
X138181457Y-76551913D01*
X138161502Y-76780000D01*
X138161981Y-76785475D01*
X138161981Y-76785485D01*
X138163026Y-76797428D01*
X138149038Y-76867033D01*
X138099639Y-76918026D01*
X138030514Y-76934217D01*
X137963608Y-76910465D01*
X137948411Y-76897506D01*
X137735405Y-76684500D01*
X137701379Y-76622188D01*
X137698500Y-76595405D01*
X137698500Y-73330000D01*
X138091502Y-73330000D01*
X138111457Y-73558087D01*
X138112881Y-73563400D01*
X138112881Y-73563402D01*
X138122031Y-73597548D01*
X138170716Y-73779243D01*
X138173039Y-73784224D01*
X138173039Y-73784225D01*
X138265151Y-73981762D01*
X138265154Y-73981767D01*
X138267477Y-73986749D01*
X138398802Y-74174300D01*
X138560700Y-74336198D01*
X138565208Y-74339355D01*
X138565211Y-74339357D01*
X138643389Y-74394098D01*
X138748251Y-74467523D01*
X138753233Y-74469846D01*
X138753238Y-74469849D01*
X138949765Y-74561490D01*
X138955757Y-74564284D01*
X138961065Y-74565706D01*
X138961067Y-74565707D01*
X139171598Y-74622119D01*
X139171600Y-74622119D01*
X139176913Y-74623543D01*
X139405000Y-74643498D01*
X139633087Y-74623543D01*
X139638400Y-74622119D01*
X139638402Y-74622119D01*
X139848933Y-74565707D01*
X139848935Y-74565706D01*
X139854243Y-74564284D01*
X139860235Y-74561490D01*
X140056762Y-74469849D01*
X140056767Y-74469846D01*
X140061749Y-74467523D01*
X140166611Y-74394098D01*
X140244789Y-74339357D01*
X140244792Y-74339355D01*
X140249300Y-74336198D01*
X140411198Y-74174300D01*
X140542523Y-73986749D01*
X140544846Y-73981767D01*
X140544849Y-73981762D01*
X140636961Y-73784225D01*
X140636961Y-73784224D01*
X140639284Y-73779243D01*
X140687970Y-73597548D01*
X140697119Y-73563402D01*
X140697119Y-73563400D01*
X140698543Y-73558087D01*
X140718498Y-73330000D01*
X140698543Y-73101913D01*
X140688244Y-73063478D01*
X140640707Y-72886067D01*
X140640706Y-72886065D01*
X140639284Y-72880757D01*
X140544966Y-72678489D01*
X140544849Y-72678238D01*
X140544846Y-72678233D01*
X140542523Y-72673251D01*
X140411198Y-72485700D01*
X140249300Y-72323802D01*
X140244792Y-72320645D01*
X140244789Y-72320643D01*
X140166611Y-72265902D01*
X140061749Y-72192477D01*
X140056767Y-72190154D01*
X140056762Y-72190151D01*
X139859225Y-72098039D01*
X139859224Y-72098039D01*
X139854243Y-72095716D01*
X139848935Y-72094294D01*
X139848933Y-72094293D01*
X139638402Y-72037881D01*
X139638400Y-72037881D01*
X139633087Y-72036457D01*
X139405000Y-72016502D01*
X139176913Y-72036457D01*
X139171600Y-72037881D01*
X139171598Y-72037881D01*
X138961067Y-72094293D01*
X138961065Y-72094294D01*
X138955757Y-72095716D01*
X138950776Y-72098039D01*
X138950775Y-72098039D01*
X138753238Y-72190151D01*
X138753233Y-72190154D01*
X138748251Y-72192477D01*
X138643389Y-72265902D01*
X138565211Y-72320643D01*
X138565208Y-72320645D01*
X138560700Y-72323802D01*
X138398802Y-72485700D01*
X138267477Y-72673251D01*
X138265154Y-72678233D01*
X138265151Y-72678238D01*
X138265034Y-72678489D01*
X138170716Y-72880757D01*
X138169294Y-72886065D01*
X138169293Y-72886067D01*
X138121756Y-73063478D01*
X138111457Y-73101913D01*
X138091502Y-73330000D01*
X137698500Y-73330000D01*
X137698500Y-69952912D01*
X137718502Y-69884791D01*
X137772158Y-69838298D01*
X137842432Y-69828194D01*
X137869449Y-69835202D01*
X137945320Y-69864174D01*
X138049692Y-69904030D01*
X138054760Y-69905061D01*
X138054763Y-69905062D01*
X138149862Y-69924410D01*
X138268597Y-69948567D01*
X138273772Y-69948757D01*
X138273774Y-69948757D01*
X138486673Y-69956564D01*
X138486677Y-69956564D01*
X138491837Y-69956753D01*
X138496957Y-69956097D01*
X138496959Y-69956097D01*
X138708288Y-69929025D01*
X138708289Y-69929025D01*
X138713416Y-69928368D01*
X138718369Y-69926882D01*
X138922429Y-69865661D01*
X138922434Y-69865659D01*
X138927384Y-69864174D01*
X139127994Y-69765896D01*
X139309860Y-69636173D01*
X139468096Y-69478489D01*
X139598453Y-69297077D01*
X139611995Y-69269678D01*
X139695136Y-69101453D01*
X139695137Y-69101451D01*
X139697430Y-69096811D01*
X139762370Y-68883069D01*
X139791529Y-68661590D01*
X139793156Y-68595000D01*
X139774852Y-68372361D01*
X139720431Y-68155702D01*
X139631354Y-67950840D01*
X139510014Y-67763277D01*
X139490405Y-67741727D01*
X139362798Y-67601488D01*
X139331746Y-67537642D01*
X139340141Y-67467143D01*
X139385317Y-67412375D01*
X139411761Y-67398706D01*
X139518297Y-67358767D01*
X139526705Y-67355615D01*
X139643261Y-67268261D01*
X139730615Y-67151705D01*
X139781745Y-67015316D01*
X139788500Y-66953134D01*
X139788500Y-65156866D01*
X139781745Y-65094684D01*
X139730615Y-64958295D01*
X139643261Y-64841739D01*
X139526705Y-64754385D01*
X139518297Y-64751233D01*
X139510425Y-64746923D01*
X139511534Y-64744898D01*
X139464864Y-64709839D01*
X139440165Y-64643277D01*
X139455373Y-64573928D01*
X139505660Y-64523811D01*
X139565859Y-64508500D01*
X146864245Y-64508500D01*
X146932366Y-64528502D01*
X146978859Y-64582158D01*
X146990245Y-64634747D01*
X146929305Y-95476353D01*
X146898600Y-111016441D01*
X146878463Y-111084522D01*
X146824716Y-111130909D01*
X146754422Y-111140874D01*
X146689900Y-111111253D01*
X146651634Y-111051451D01*
X146651166Y-111049491D01*
X146651087Y-111048587D01*
X146650320Y-111045948D01*
X146649510Y-111042555D01*
X146649080Y-111038167D01*
X146622209Y-110949166D01*
X146621874Y-110948033D01*
X146597630Y-110864586D01*
X146597628Y-110864582D01*
X146595909Y-110858664D01*
X146593456Y-110853932D01*
X146591916Y-110848831D01*
X146587389Y-110840316D01*
X146548269Y-110766740D01*
X146547657Y-110765574D01*
X146507729Y-110688547D01*
X146504892Y-110683074D01*
X146501569Y-110678911D01*
X146499066Y-110674204D01*
X146440261Y-110602102D01*
X146439433Y-110601075D01*
X146410469Y-110564792D01*
X146410464Y-110564787D01*
X146408262Y-110562028D01*
X146405761Y-110559527D01*
X146405119Y-110558809D01*
X146401406Y-110554461D01*
X146393642Y-110544941D01*
X146374065Y-110520938D01*
X146369323Y-110517015D01*
X146369321Y-110517013D01*
X146338727Y-110491703D01*
X146329947Y-110483713D01*
X146052818Y-110206584D01*
X146018792Y-110144272D01*
X146016302Y-110107600D01*
X146018086Y-110084938D01*
X146018086Y-110084930D01*
X146018474Y-110080000D01*
X145998609Y-109827597D01*
X145939505Y-109581409D01*
X145928227Y-109554181D01*
X145844511Y-109352072D01*
X145844509Y-109352068D01*
X145842616Y-109347498D01*
X145710328Y-109131624D01*
X145545898Y-108939102D01*
X145353376Y-108774672D01*
X145137502Y-108642384D01*
X145132932Y-108640491D01*
X145132928Y-108640489D01*
X144908164Y-108547389D01*
X144908162Y-108547388D01*
X144903591Y-108545495D01*
X144818968Y-108525179D01*
X144662216Y-108487546D01*
X144662210Y-108487545D01*
X144657403Y-108486391D01*
X144405000Y-108466526D01*
X144152597Y-108486391D01*
X144147790Y-108487545D01*
X144147784Y-108487546D01*
X143991032Y-108525179D01*
X143906409Y-108545495D01*
X143901838Y-108547388D01*
X143901836Y-108547389D01*
X143677072Y-108640489D01*
X143677068Y-108640491D01*
X143672498Y-108642384D01*
X143456624Y-108774672D01*
X143264102Y-108939102D01*
X143099672Y-109131624D01*
X142967384Y-109347498D01*
X142965491Y-109352068D01*
X142965489Y-109352072D01*
X142881773Y-109554181D01*
X142870495Y-109581409D01*
X142811391Y-109827597D01*
X142791526Y-110080000D01*
X142811391Y-110332403D01*
X142870495Y-110578591D01*
X142872388Y-110583162D01*
X142872389Y-110583164D01*
X142948429Y-110766740D01*
X142967384Y-110812502D01*
X143099672Y-111028376D01*
X143264102Y-111220898D01*
X143456624Y-111385328D01*
X143672498Y-111517616D01*
X143677068Y-111519509D01*
X143677072Y-111519511D01*
X143901836Y-111612611D01*
X143906409Y-111614505D01*
X143991032Y-111634821D01*
X144147784Y-111672454D01*
X144147790Y-111672455D01*
X144152597Y-111673609D01*
X144405000Y-111693474D01*
X144409930Y-111693086D01*
X144510614Y-111685162D01*
X144580094Y-111699758D01*
X144630654Y-111749601D01*
X144646500Y-111810774D01*
X144646500Y-111954000D01*
X144626498Y-112022121D01*
X144572842Y-112068614D01*
X144520500Y-112080000D01*
X132289500Y-112080000D01*
X132221379Y-112059998D01*
X132174886Y-112006342D01*
X132163500Y-111954000D01*
X132163500Y-111062767D01*
X132183502Y-110994646D01*
X132200405Y-110973672D01*
X132334301Y-110839776D01*
X132335040Y-110840515D01*
X132389657Y-110804181D01*
X132427064Y-110798500D01*
X133900251Y-110798500D01*
X133968372Y-110818502D01*
X134014865Y-110872158D01*
X134018233Y-110880270D01*
X134054385Y-110976705D01*
X134141739Y-111093261D01*
X134258295Y-111180615D01*
X134394684Y-111231745D01*
X134456866Y-111238500D01*
X136353134Y-111238500D01*
X136415316Y-111231745D01*
X136551705Y-111180615D01*
X136668261Y-111093261D01*
X136755615Y-110976705D01*
X136806745Y-110840316D01*
X136813500Y-110778134D01*
X136813500Y-108881866D01*
X136806745Y-108819684D01*
X136755615Y-108683295D01*
X136668261Y-108566739D01*
X136661081Y-108561358D01*
X136654731Y-108555008D01*
X136656978Y-108552761D01*
X136623857Y-108508456D01*
X136618838Y-108437637D01*
X136652903Y-108375347D01*
X136715238Y-108341362D01*
X136741941Y-108338500D01*
X137228629Y-108338500D01*
X137296750Y-108358502D01*
X137317724Y-108375405D01*
X138459595Y-109517276D01*
X138493621Y-109579588D01*
X138496500Y-109606371D01*
X138496500Y-110838134D01*
X138503255Y-110900316D01*
X138554385Y-111036705D01*
X138641739Y-111153261D01*
X138758295Y-111240615D01*
X138894684Y-111291745D01*
X138956866Y-111298500D01*
X140853134Y-111298500D01*
X140915316Y-111291745D01*
X141051705Y-111240615D01*
X141168261Y-111153261D01*
X141255615Y-111036705D01*
X141306745Y-110900316D01*
X141313500Y-110838134D01*
X141313500Y-108941866D01*
X141306745Y-108879684D01*
X141255615Y-108743295D01*
X141168261Y-108626739D01*
X141051705Y-108539385D01*
X140915316Y-108488255D01*
X140853134Y-108481500D01*
X139621371Y-108481500D01*
X139553250Y-108461498D01*
X139532276Y-108444595D01*
X138178770Y-107091089D01*
X138166384Y-107076677D01*
X138157851Y-107065082D01*
X138157846Y-107065077D01*
X138153508Y-107059182D01*
X138147930Y-107054443D01*
X138147927Y-107054440D01*
X138113232Y-107024965D01*
X138105716Y-107018035D01*
X138100021Y-107012340D01*
X138083736Y-106999456D01*
X138077749Y-106994719D01*
X138074345Y-106991928D01*
X138024297Y-106949409D01*
X138024295Y-106949408D01*
X138018715Y-106944667D01*
X138012199Y-106941339D01*
X138007150Y-106937972D01*
X138002021Y-106934805D01*
X137996284Y-106930266D01*
X137930125Y-106899345D01*
X137926225Y-106897439D01*
X137861192Y-106864231D01*
X137854084Y-106862492D01*
X137848441Y-106860393D01*
X137842678Y-106858476D01*
X137836050Y-106855378D01*
X137764583Y-106840513D01*
X137760299Y-106839543D01*
X137689390Y-106822192D01*
X137683788Y-106821844D01*
X137683785Y-106821844D01*
X137678236Y-106821500D01*
X137678238Y-106821464D01*
X137674245Y-106821225D01*
X137670053Y-106820851D01*
X137662885Y-106819360D01*
X137599120Y-106821085D01*
X137585479Y-106821454D01*
X137582072Y-106821500D01*
X130067070Y-106821500D01*
X130048120Y-106820067D01*
X130033885Y-106817901D01*
X130033881Y-106817901D01*
X130026651Y-106816801D01*
X130019359Y-106817394D01*
X130019356Y-106817394D01*
X129973982Y-106821085D01*
X129963767Y-106821500D01*
X129955707Y-106821500D01*
X129952073Y-106821924D01*
X129952067Y-106821924D01*
X129939042Y-106823443D01*
X129927480Y-106824791D01*
X129923132Y-106825221D01*
X129850364Y-106831140D01*
X129843403Y-106833395D01*
X129837463Y-106834582D01*
X129831588Y-106835971D01*
X129824319Y-106836818D01*
X129755670Y-106861736D01*
X129751542Y-106863153D01*
X129689064Y-106883393D01*
X129689062Y-106883394D01*
X129682101Y-106885649D01*
X129675846Y-106889445D01*
X129670372Y-106891951D01*
X129664942Y-106894670D01*
X129658063Y-106897167D01*
X129651943Y-106901180D01*
X129651942Y-106901180D01*
X129597024Y-106937186D01*
X129593320Y-106939523D01*
X129530893Y-106977405D01*
X129522516Y-106984803D01*
X129522492Y-106984776D01*
X129519500Y-106987429D01*
X129516267Y-106990132D01*
X129510148Y-106994144D01*
X129480951Y-107024965D01*
X129456872Y-107050383D01*
X129454494Y-107052825D01*
X127689477Y-108817842D01*
X127627165Y-108851868D01*
X127589400Y-108854268D01*
X127510475Y-108847363D01*
X127505000Y-108846884D01*
X127294345Y-108865314D01*
X127289032Y-108866738D01*
X127289030Y-108866738D01*
X127095400Y-108918621D01*
X127095398Y-108918622D01*
X127090090Y-108920044D01*
X127085109Y-108922366D01*
X127085108Y-108922367D01*
X126903423Y-109007088D01*
X126903420Y-109007090D01*
X126898442Y-109009411D01*
X126725224Y-109130699D01*
X126575699Y-109280224D01*
X126454411Y-109453442D01*
X126452090Y-109458420D01*
X126452088Y-109458423D01*
X126396871Y-109576836D01*
X126365044Y-109645090D01*
X126310314Y-109849345D01*
X126291884Y-110060000D01*
X126292363Y-110065475D01*
X126299268Y-110144400D01*
X126285279Y-110214005D01*
X126262842Y-110244477D01*
X125666089Y-110841230D01*
X125651677Y-110853616D01*
X125640082Y-110862149D01*
X125640077Y-110862154D01*
X125634182Y-110866492D01*
X125629443Y-110872070D01*
X125629440Y-110872073D01*
X125599965Y-110906768D01*
X125593035Y-110914284D01*
X125587340Y-110919979D01*
X125585060Y-110922861D01*
X125569719Y-110942251D01*
X125566928Y-110945655D01*
X125543126Y-110973672D01*
X125519667Y-111001285D01*
X125516339Y-111007801D01*
X125512972Y-111012850D01*
X125509805Y-111017979D01*
X125505266Y-111023716D01*
X125474345Y-111089875D01*
X125472442Y-111093769D01*
X125439231Y-111158808D01*
X125437492Y-111165916D01*
X125435393Y-111171559D01*
X125433476Y-111177322D01*
X125430378Y-111183950D01*
X125428888Y-111191112D01*
X125428888Y-111191113D01*
X125415514Y-111255412D01*
X125414544Y-111259696D01*
X125397192Y-111330610D01*
X125396500Y-111341764D01*
X125396464Y-111341762D01*
X125396225Y-111345755D01*
X125395851Y-111349947D01*
X125394360Y-111357115D01*
X125394558Y-111364432D01*
X125396454Y-111434521D01*
X125396500Y-111437928D01*
X125396500Y-111954000D01*
X125376498Y-112022121D01*
X125322842Y-112068614D01*
X125270500Y-112080000D01*
X125039750Y-112080000D01*
X124971629Y-112059998D01*
X124925136Y-112006342D01*
X124913751Y-111953754D01*
X124927530Y-104980000D01*
X126291884Y-104980000D01*
X126310314Y-105190655D01*
X126365044Y-105394910D01*
X126454411Y-105586558D01*
X126575699Y-105759776D01*
X126725224Y-105909301D01*
X126898442Y-106030589D01*
X126903420Y-106032910D01*
X126903423Y-106032912D01*
X127085108Y-106117633D01*
X127090090Y-106119956D01*
X127095398Y-106121378D01*
X127095400Y-106121379D01*
X127289030Y-106173262D01*
X127289032Y-106173262D01*
X127294345Y-106174686D01*
X127505000Y-106193116D01*
X127715655Y-106174686D01*
X127720968Y-106173262D01*
X127720970Y-106173262D01*
X127914600Y-106121379D01*
X127914602Y-106121378D01*
X127919910Y-106119956D01*
X127924892Y-106117633D01*
X128106577Y-106032912D01*
X128106580Y-106032910D01*
X128111558Y-106030589D01*
X128284776Y-105909301D01*
X128434301Y-105759776D01*
X128555589Y-105586558D01*
X128644956Y-105394910D01*
X128699686Y-105190655D01*
X128718116Y-104980000D01*
X130191884Y-104980000D01*
X130210314Y-105190655D01*
X130265044Y-105394910D01*
X130354411Y-105586558D01*
X130475699Y-105759776D01*
X130625224Y-105909301D01*
X130798442Y-106030589D01*
X130803420Y-106032910D01*
X130803423Y-106032912D01*
X130985108Y-106117633D01*
X130990090Y-106119956D01*
X130995398Y-106121378D01*
X130995400Y-106121379D01*
X131189030Y-106173262D01*
X131189032Y-106173262D01*
X131194345Y-106174686D01*
X131405000Y-106193116D01*
X131615655Y-106174686D01*
X131620968Y-106173262D01*
X131620970Y-106173262D01*
X131814600Y-106121379D01*
X131814602Y-106121378D01*
X131819910Y-106119956D01*
X131824892Y-106117633D01*
X132006577Y-106032912D01*
X132006580Y-106032910D01*
X132011558Y-106030589D01*
X132184776Y-105909301D01*
X132334301Y-105759776D01*
X132455589Y-105586558D01*
X132544956Y-105394910D01*
X132599686Y-105190655D01*
X132618116Y-104980000D01*
X132599686Y-104769345D01*
X132544956Y-104565090D01*
X132455589Y-104373442D01*
X132334301Y-104200224D01*
X132184776Y-104050699D01*
X132011558Y-103929411D01*
X132006580Y-103927090D01*
X132006577Y-103927088D01*
X131824892Y-103842367D01*
X131824891Y-103842366D01*
X131819910Y-103840044D01*
X131814602Y-103838622D01*
X131814600Y-103838621D01*
X131620970Y-103786738D01*
X131620968Y-103786738D01*
X131615655Y-103785314D01*
X131405000Y-103766884D01*
X131194345Y-103785314D01*
X131189032Y-103786738D01*
X131189030Y-103786738D01*
X130995400Y-103838621D01*
X130995398Y-103838622D01*
X130990090Y-103840044D01*
X130985109Y-103842366D01*
X130985108Y-103842367D01*
X130803423Y-103927088D01*
X130803420Y-103927090D01*
X130798442Y-103929411D01*
X130625224Y-104050699D01*
X130475699Y-104200224D01*
X130354411Y-104373442D01*
X130265044Y-104565090D01*
X130210314Y-104769345D01*
X130191884Y-104980000D01*
X128718116Y-104980000D01*
X128699686Y-104769345D01*
X128644956Y-104565090D01*
X128555589Y-104373442D01*
X128434301Y-104200224D01*
X128388815Y-104154738D01*
X128354789Y-104092426D01*
X128359854Y-104021611D01*
X128402401Y-103964775D01*
X128424661Y-103951448D01*
X128556758Y-103889851D01*
X128556764Y-103889847D01*
X128561749Y-103887523D01*
X128666611Y-103814098D01*
X128744789Y-103759357D01*
X128744792Y-103759355D01*
X128749300Y-103756198D01*
X128911198Y-103594300D01*
X128929783Y-103567759D01*
X128990164Y-103481525D01*
X129042523Y-103406749D01*
X129044846Y-103401767D01*
X129044849Y-103401762D01*
X129136961Y-103204225D01*
X129136961Y-103204224D01*
X129139284Y-103199243D01*
X129141941Y-103189329D01*
X129197119Y-102983402D01*
X129197119Y-102983400D01*
X129198543Y-102978087D01*
X129218498Y-102750000D01*
X129198543Y-102521913D01*
X129187838Y-102481960D01*
X129186768Y-102477966D01*
X134022000Y-102477966D01*
X134055685Y-102627439D01*
X134058773Y-102637292D01*
X134141989Y-102842226D01*
X134146629Y-102851413D01*
X134262208Y-103040022D01*
X134268286Y-103048326D01*
X134413113Y-103215519D01*
X134420475Y-103222728D01*
X134590660Y-103364018D01*
X134599099Y-103369927D01*
X134790077Y-103481525D01*
X134799364Y-103485975D01*
X135006003Y-103564883D01*
X135015901Y-103567759D01*
X135133250Y-103591634D01*
X135147299Y-103590438D01*
X135151000Y-103580093D01*
X135151000Y-103578928D01*
X135659000Y-103578928D01*
X135663064Y-103592770D01*
X135676479Y-103594804D01*
X135693613Y-103592609D01*
X135703698Y-103590466D01*
X135915557Y-103526905D01*
X135925152Y-103523144D01*
X136123778Y-103425838D01*
X136132636Y-103420559D01*
X136312716Y-103292109D01*
X136320578Y-103285465D01*
X136477260Y-103129329D01*
X136483937Y-103121484D01*
X136613010Y-102941859D01*
X136618321Y-102933020D01*
X136716318Y-102734737D01*
X136720117Y-102725142D01*
X136776987Y-102537966D01*
X138522000Y-102537966D01*
X138555685Y-102687439D01*
X138558773Y-102697292D01*
X138641989Y-102902226D01*
X138646629Y-102911413D01*
X138762208Y-103100022D01*
X138768286Y-103108326D01*
X138913113Y-103275519D01*
X138920475Y-103282728D01*
X139090660Y-103424018D01*
X139099099Y-103429927D01*
X139290077Y-103541525D01*
X139299364Y-103545975D01*
X139506003Y-103624883D01*
X139515901Y-103627759D01*
X139633250Y-103651634D01*
X139647299Y-103650438D01*
X139651000Y-103640093D01*
X139651000Y-103638928D01*
X140159000Y-103638928D01*
X140163064Y-103652770D01*
X140176479Y-103654804D01*
X140193613Y-103652609D01*
X140203698Y-103650466D01*
X140415557Y-103586905D01*
X140425152Y-103583144D01*
X140623778Y-103485838D01*
X140632636Y-103480559D01*
X140812716Y-103352109D01*
X140820578Y-103345465D01*
X140977260Y-103189329D01*
X140983937Y-103181484D01*
X141113010Y-103001859D01*
X141118321Y-102993020D01*
X141216318Y-102794737D01*
X141220117Y-102785142D01*
X141284415Y-102573517D01*
X141286594Y-102563436D01*
X141289422Y-102541960D01*
X141287210Y-102527779D01*
X141274052Y-102524000D01*
X140177115Y-102524000D01*
X140161876Y-102528475D01*
X140160671Y-102529865D01*
X140159000Y-102537548D01*
X140159000Y-103638928D01*
X139651000Y-103638928D01*
X139651000Y-102542115D01*
X139646525Y-102526876D01*
X139645135Y-102525671D01*
X139637452Y-102524000D01*
X138536968Y-102524000D01*
X138523437Y-102527973D01*
X138522000Y-102537966D01*
X136776987Y-102537966D01*
X136784415Y-102513517D01*
X136786594Y-102503436D01*
X136789422Y-102481960D01*
X136787210Y-102467779D01*
X136774052Y-102464000D01*
X135677115Y-102464000D01*
X135661876Y-102468475D01*
X135660671Y-102469865D01*
X135659000Y-102477548D01*
X135659000Y-103578928D01*
X135151000Y-103578928D01*
X135151000Y-102482115D01*
X135146525Y-102466876D01*
X135145135Y-102465671D01*
X135137452Y-102464000D01*
X134036968Y-102464000D01*
X134023437Y-102467973D01*
X134022000Y-102477966D01*
X129186768Y-102477966D01*
X129140707Y-102306067D01*
X129140706Y-102306065D01*
X129139284Y-102300757D01*
X129136961Y-102295775D01*
X129044849Y-102098238D01*
X129044846Y-102098233D01*
X129042523Y-102093251D01*
X128977780Y-102000788D01*
X138518484Y-102000788D01*
X138520625Y-102012609D01*
X138533001Y-102016000D01*
X139632885Y-102016000D01*
X139648124Y-102011525D01*
X139649329Y-102010135D01*
X139651000Y-102002452D01*
X139651000Y-101997885D01*
X140159000Y-101997885D01*
X140163475Y-102013124D01*
X140164865Y-102014329D01*
X140172548Y-102016000D01*
X141274900Y-102016000D01*
X141288431Y-102012027D01*
X141289736Y-102002947D01*
X141243710Y-101819708D01*
X141240389Y-101809953D01*
X141152193Y-101607118D01*
X141147315Y-101598020D01*
X141027177Y-101412315D01*
X141020885Y-101404144D01*
X140872023Y-101240547D01*
X140864490Y-101233521D01*
X140690901Y-101096429D01*
X140682323Y-101090730D01*
X140641390Y-101068134D01*
X142796500Y-101068134D01*
X142803255Y-101130316D01*
X142854385Y-101266705D01*
X142941739Y-101383261D01*
X143058295Y-101470615D01*
X143194684Y-101521745D01*
X143256866Y-101528500D01*
X145553134Y-101528500D01*
X145615316Y-101521745D01*
X145751705Y-101470615D01*
X145868261Y-101383261D01*
X145955615Y-101266705D01*
X146006745Y-101130316D01*
X146013500Y-101068134D01*
X146013500Y-98771866D01*
X146006745Y-98709684D01*
X145955615Y-98573295D01*
X145868261Y-98456739D01*
X145751705Y-98369385D01*
X145615316Y-98318255D01*
X145553134Y-98311500D01*
X143256866Y-98311500D01*
X143194684Y-98318255D01*
X143058295Y-98369385D01*
X142941739Y-98456739D01*
X142854385Y-98573295D01*
X142803255Y-98709684D01*
X142796500Y-98771866D01*
X142796500Y-101068134D01*
X140641390Y-101068134D01*
X140488678Y-100983833D01*
X140479272Y-100979606D01*
X140270772Y-100905772D01*
X140260809Y-100903140D01*
X140176836Y-100888182D01*
X140163541Y-100889641D01*
X140159000Y-100904199D01*
X140159000Y-101997885D01*
X139651000Y-101997885D01*
X139651000Y-100902517D01*
X139647082Y-100889173D01*
X139632806Y-100887186D01*
X139582694Y-100894855D01*
X139572666Y-100897244D01*
X139362426Y-100965961D01*
X139352916Y-100969958D01*
X139156728Y-101072087D01*
X139148003Y-101077581D01*
X138971123Y-101210386D01*
X138963416Y-101217229D01*
X138810600Y-101377143D01*
X138804113Y-101385153D01*
X138679474Y-101567867D01*
X138674376Y-101576841D01*
X138581252Y-101777459D01*
X138577689Y-101787146D01*
X138518581Y-102000279D01*
X138518484Y-102000788D01*
X128977780Y-102000788D01*
X128946419Y-101956000D01*
X128935767Y-101940788D01*
X134018484Y-101940788D01*
X134020625Y-101952609D01*
X134033001Y-101956000D01*
X135132885Y-101956000D01*
X135148124Y-101951525D01*
X135149329Y-101950135D01*
X135151000Y-101942452D01*
X135151000Y-101937885D01*
X135659000Y-101937885D01*
X135663475Y-101953124D01*
X135664865Y-101954329D01*
X135672548Y-101956000D01*
X136774900Y-101956000D01*
X136788431Y-101952027D01*
X136789736Y-101942947D01*
X136743710Y-101759708D01*
X136740389Y-101749953D01*
X136652193Y-101547118D01*
X136647315Y-101538020D01*
X136527177Y-101352315D01*
X136520885Y-101344144D01*
X136372023Y-101180547D01*
X136364490Y-101173521D01*
X136190901Y-101036429D01*
X136182323Y-101030730D01*
X135988678Y-100923833D01*
X135979272Y-100919606D01*
X135770772Y-100845772D01*
X135760809Y-100843140D01*
X135676836Y-100828182D01*
X135663541Y-100829641D01*
X135659000Y-100844199D01*
X135659000Y-101937885D01*
X135151000Y-101937885D01*
X135151000Y-100842517D01*
X135147082Y-100829173D01*
X135132806Y-100827186D01*
X135082694Y-100834855D01*
X135072666Y-100837244D01*
X134862426Y-100905961D01*
X134852916Y-100909958D01*
X134656728Y-101012087D01*
X134648003Y-101017581D01*
X134471123Y-101150386D01*
X134463416Y-101157229D01*
X134310600Y-101317143D01*
X134304113Y-101325153D01*
X134179474Y-101507867D01*
X134174376Y-101516841D01*
X134081252Y-101717459D01*
X134077689Y-101727146D01*
X134018581Y-101940279D01*
X134018484Y-101940788D01*
X128935767Y-101940788D01*
X128914357Y-101910211D01*
X128914355Y-101910208D01*
X128911198Y-101905700D01*
X128749300Y-101743802D01*
X128744792Y-101740645D01*
X128744789Y-101740643D01*
X128666611Y-101685902D01*
X128561749Y-101612477D01*
X128556767Y-101610154D01*
X128556762Y-101610151D01*
X128359225Y-101518039D01*
X128359224Y-101518039D01*
X128354243Y-101515716D01*
X128348935Y-101514294D01*
X128348933Y-101514293D01*
X128138402Y-101457881D01*
X128138400Y-101457881D01*
X128133087Y-101456457D01*
X127905000Y-101436502D01*
X127676913Y-101456457D01*
X127671600Y-101457881D01*
X127671598Y-101457881D01*
X127461067Y-101514293D01*
X127461065Y-101514294D01*
X127455757Y-101515716D01*
X127450776Y-101518039D01*
X127450775Y-101518039D01*
X127253238Y-101610151D01*
X127253233Y-101610154D01*
X127248251Y-101612477D01*
X127143389Y-101685902D01*
X127065211Y-101740643D01*
X127065208Y-101740645D01*
X127060700Y-101743802D01*
X126898802Y-101905700D01*
X126895645Y-101910208D01*
X126895643Y-101910211D01*
X126863581Y-101956000D01*
X126767477Y-102093251D01*
X126765154Y-102098233D01*
X126765151Y-102098238D01*
X126673039Y-102295775D01*
X126670716Y-102300757D01*
X126669294Y-102306065D01*
X126669293Y-102306067D01*
X126622162Y-102481960D01*
X126611457Y-102521913D01*
X126591502Y-102750000D01*
X126611457Y-102978087D01*
X126612881Y-102983400D01*
X126612881Y-102983402D01*
X126668060Y-103189329D01*
X126670716Y-103199243D01*
X126673039Y-103204224D01*
X126673039Y-103204225D01*
X126765151Y-103401762D01*
X126765154Y-103401767D01*
X126767477Y-103406749D01*
X126819836Y-103481525D01*
X126880218Y-103567759D01*
X126898802Y-103594300D01*
X126999987Y-103695485D01*
X127034013Y-103757797D01*
X127028948Y-103828612D01*
X126986401Y-103885448D01*
X126964141Y-103898775D01*
X126903427Y-103927086D01*
X126903423Y-103927088D01*
X126898442Y-103929411D01*
X126725224Y-104050699D01*
X126575699Y-104200224D01*
X126454411Y-104373442D01*
X126365044Y-104565090D01*
X126310314Y-104769345D01*
X126291884Y-104980000D01*
X124927530Y-104980000D01*
X124939649Y-98846522D01*
X130872273Y-98846522D01*
X130919764Y-99023761D01*
X130923510Y-99034053D01*
X131015586Y-99231511D01*
X131021069Y-99241007D01*
X131146028Y-99419467D01*
X131153084Y-99427875D01*
X131307125Y-99581916D01*
X131315533Y-99588972D01*
X131493993Y-99713931D01*
X131503489Y-99719414D01*
X131700947Y-99811490D01*
X131711239Y-99815236D01*
X131883503Y-99861394D01*
X131897599Y-99861058D01*
X131901000Y-99853116D01*
X131901000Y-99847967D01*
X132409000Y-99847967D01*
X132412973Y-99861498D01*
X132421522Y-99862727D01*
X132598761Y-99815236D01*
X132609053Y-99811490D01*
X132806511Y-99719414D01*
X132816007Y-99713931D01*
X132994467Y-99588972D01*
X133002875Y-99581916D01*
X133156916Y-99427875D01*
X133163972Y-99419467D01*
X133288931Y-99241007D01*
X133294414Y-99231511D01*
X133386490Y-99034053D01*
X133390236Y-99023761D01*
X133436394Y-98851497D01*
X133436058Y-98837401D01*
X133428116Y-98834000D01*
X132427115Y-98834000D01*
X132411876Y-98838475D01*
X132410671Y-98839865D01*
X132409000Y-98847548D01*
X132409000Y-99847967D01*
X131901000Y-99847967D01*
X131901000Y-98852115D01*
X131896525Y-98836876D01*
X131895135Y-98835671D01*
X131887452Y-98834000D01*
X130887033Y-98834000D01*
X130873502Y-98837973D01*
X130872273Y-98846522D01*
X124939649Y-98846522D01*
X124940176Y-98580000D01*
X138341502Y-98580000D01*
X138361457Y-98808087D01*
X138362881Y-98813400D01*
X138362881Y-98813402D01*
X138372031Y-98847548D01*
X138420716Y-99029243D01*
X138423039Y-99034224D01*
X138423039Y-99034225D01*
X138515151Y-99231762D01*
X138515154Y-99231767D01*
X138517477Y-99236749D01*
X138648802Y-99424300D01*
X138810700Y-99586198D01*
X138815208Y-99589355D01*
X138815211Y-99589357D01*
X138893389Y-99644098D01*
X138998251Y-99717523D01*
X139003233Y-99719846D01*
X139003238Y-99719849D01*
X139199765Y-99811490D01*
X139205757Y-99814284D01*
X139211065Y-99815706D01*
X139211067Y-99815707D01*
X139421598Y-99872119D01*
X139421600Y-99872119D01*
X139426913Y-99873543D01*
X139655000Y-99893498D01*
X139883087Y-99873543D01*
X139888400Y-99872119D01*
X139888402Y-99872119D01*
X140098933Y-99815707D01*
X140098935Y-99815706D01*
X140104243Y-99814284D01*
X140110235Y-99811490D01*
X140306762Y-99719849D01*
X140306767Y-99719846D01*
X140311749Y-99717523D01*
X140416611Y-99644098D01*
X140494789Y-99589357D01*
X140494792Y-99589355D01*
X140499300Y-99586198D01*
X140661198Y-99424300D01*
X140792523Y-99236749D01*
X140794846Y-99231767D01*
X140794849Y-99231762D01*
X140886961Y-99034225D01*
X140886961Y-99034224D01*
X140889284Y-99029243D01*
X140937970Y-98847548D01*
X140947119Y-98813402D01*
X140947119Y-98813400D01*
X140948543Y-98808087D01*
X140968498Y-98580000D01*
X140948543Y-98351913D01*
X140938244Y-98313478D01*
X140890707Y-98136067D01*
X140890706Y-98136065D01*
X140889284Y-98130757D01*
X140794966Y-97928489D01*
X140794849Y-97928238D01*
X140794846Y-97928233D01*
X140792523Y-97923251D01*
X140661198Y-97735700D01*
X140499300Y-97573802D01*
X140494792Y-97570645D01*
X140494789Y-97570643D01*
X140416611Y-97515902D01*
X140311749Y-97442477D01*
X140306767Y-97440154D01*
X140306762Y-97440151D01*
X140109225Y-97348039D01*
X140109224Y-97348039D01*
X140104243Y-97345716D01*
X140098935Y-97344294D01*
X140098933Y-97344293D01*
X139888402Y-97287881D01*
X139888400Y-97287881D01*
X139883087Y-97286457D01*
X139655000Y-97266502D01*
X139426913Y-97286457D01*
X139421600Y-97287881D01*
X139421598Y-97287881D01*
X139211067Y-97344293D01*
X139211065Y-97344294D01*
X139205757Y-97345716D01*
X139200776Y-97348039D01*
X139200775Y-97348039D01*
X139003238Y-97440151D01*
X139003233Y-97440154D01*
X138998251Y-97442477D01*
X138893389Y-97515902D01*
X138815211Y-97570643D01*
X138815208Y-97570645D01*
X138810700Y-97573802D01*
X138648802Y-97735700D01*
X138517477Y-97923251D01*
X138515154Y-97928233D01*
X138515151Y-97928238D01*
X138515034Y-97928489D01*
X138420716Y-98130757D01*
X138419294Y-98136065D01*
X138419293Y-98136067D01*
X138371756Y-98313478D01*
X138361457Y-98351913D01*
X138341502Y-98580000D01*
X124940176Y-98580000D01*
X124940712Y-98308503D01*
X130873606Y-98308503D01*
X130873942Y-98322599D01*
X130881884Y-98326000D01*
X131882885Y-98326000D01*
X131898124Y-98321525D01*
X131899329Y-98320135D01*
X131901000Y-98312452D01*
X131901000Y-98307885D01*
X132409000Y-98307885D01*
X132413475Y-98323124D01*
X132414865Y-98324329D01*
X132422548Y-98326000D01*
X133422967Y-98326000D01*
X133436498Y-98322027D01*
X133437727Y-98313478D01*
X133390236Y-98136239D01*
X133386490Y-98125947D01*
X133294414Y-97928489D01*
X133288931Y-97918993D01*
X133163972Y-97740533D01*
X133156916Y-97732125D01*
X133002875Y-97578084D01*
X132994467Y-97571028D01*
X132816007Y-97446069D01*
X132806511Y-97440586D01*
X132609053Y-97348510D01*
X132598761Y-97344764D01*
X132426497Y-97298606D01*
X132412401Y-97298942D01*
X132409000Y-97306884D01*
X132409000Y-98307885D01*
X131901000Y-98307885D01*
X131901000Y-97312033D01*
X131897027Y-97298502D01*
X131888478Y-97297273D01*
X131711239Y-97344764D01*
X131700947Y-97348510D01*
X131503489Y-97440586D01*
X131493993Y-97446069D01*
X131315533Y-97571028D01*
X131307125Y-97578084D01*
X131153084Y-97732125D01*
X131146028Y-97740533D01*
X131021069Y-97918993D01*
X131015586Y-97928489D01*
X130923510Y-98125947D01*
X130919764Y-98136239D01*
X130873606Y-98308503D01*
X124940712Y-98308503D01*
X124944609Y-96336062D01*
X127183493Y-96336062D01*
X127192789Y-96348077D01*
X127243994Y-96383931D01*
X127253489Y-96389414D01*
X127450947Y-96481490D01*
X127461239Y-96485236D01*
X127671688Y-96541625D01*
X127682481Y-96543528D01*
X127899525Y-96562517D01*
X127910475Y-96562517D01*
X128127519Y-96543528D01*
X128138312Y-96541625D01*
X128348761Y-96485236D01*
X128359053Y-96481490D01*
X128556511Y-96389414D01*
X128566006Y-96383931D01*
X128618048Y-96347491D01*
X128626424Y-96337012D01*
X128619356Y-96323566D01*
X127917812Y-95622022D01*
X127903868Y-95614408D01*
X127902035Y-95614539D01*
X127895420Y-95618790D01*
X127189923Y-96324287D01*
X127183493Y-96336062D01*
X124944609Y-96336062D01*
X124946744Y-95255475D01*
X126592483Y-95255475D01*
X126611472Y-95472519D01*
X126613375Y-95483312D01*
X126669764Y-95693761D01*
X126673510Y-95704053D01*
X126765586Y-95901511D01*
X126771069Y-95911006D01*
X126807509Y-95963048D01*
X126817988Y-95971424D01*
X126831434Y-95964356D01*
X127532978Y-95262812D01*
X127539356Y-95251132D01*
X128269408Y-95251132D01*
X128269539Y-95252965D01*
X128273790Y-95259580D01*
X128979287Y-95965077D01*
X128991062Y-95971507D01*
X129003077Y-95962211D01*
X129038931Y-95911006D01*
X129044414Y-95901511D01*
X129136490Y-95704053D01*
X129140236Y-95693761D01*
X129196625Y-95483312D01*
X129198528Y-95472519D01*
X129209425Y-95347966D01*
X130652000Y-95347966D01*
X130685685Y-95497439D01*
X130688773Y-95507292D01*
X130771989Y-95712226D01*
X130776629Y-95721413D01*
X130892208Y-95910022D01*
X130898286Y-95918326D01*
X131043113Y-96085519D01*
X131050475Y-96092728D01*
X131220660Y-96234018D01*
X131229099Y-96239927D01*
X131420077Y-96351525D01*
X131429364Y-96355975D01*
X131636003Y-96434883D01*
X131645901Y-96437759D01*
X131763250Y-96461634D01*
X131777299Y-96460438D01*
X131781000Y-96450093D01*
X131781000Y-96448928D01*
X132289000Y-96448928D01*
X132293064Y-96462770D01*
X132306479Y-96464804D01*
X132323613Y-96462609D01*
X132333698Y-96460466D01*
X132545557Y-96396905D01*
X132555152Y-96393144D01*
X132753778Y-96295838D01*
X132762636Y-96290559D01*
X132942716Y-96162109D01*
X132950578Y-96155465D01*
X133078354Y-96028134D01*
X138246500Y-96028134D01*
X138253255Y-96090316D01*
X138304385Y-96226705D01*
X138391739Y-96343261D01*
X138508295Y-96430615D01*
X138644684Y-96481745D01*
X138706866Y-96488500D01*
X140603134Y-96488500D01*
X140665316Y-96481745D01*
X140801705Y-96430615D01*
X140918261Y-96343261D01*
X140918644Y-96342750D01*
X142421524Y-96342750D01*
X142425272Y-96383931D01*
X142434492Y-96485236D01*
X142439894Y-96544596D01*
X142497119Y-96739029D01*
X142499972Y-96744486D01*
X142499973Y-96744489D01*
X142504127Y-96752435D01*
X142591019Y-96918645D01*
X142594879Y-96923445D01*
X142594879Y-96923446D01*
X142600729Y-96930722D01*
X142718019Y-97076601D01*
X142873281Y-97206881D01*
X142878673Y-97209845D01*
X142878677Y-97209848D01*
X142981731Y-97266502D01*
X143050891Y-97304523D01*
X143244084Y-97365807D01*
X143250201Y-97366493D01*
X143250205Y-97366494D01*
X143324348Y-97374810D01*
X143401817Y-97383500D01*
X143961004Y-97383500D01*
X144111713Y-97368723D01*
X144305742Y-97310142D01*
X144484698Y-97214990D01*
X144641763Y-97086890D01*
X144654246Y-97071801D01*
X144767027Y-96935472D01*
X144767029Y-96935469D01*
X144770956Y-96930722D01*
X144867356Y-96752435D01*
X144927290Y-96558820D01*
X144937628Y-96460466D01*
X144947832Y-96363378D01*
X144947832Y-96363377D01*
X144948476Y-96357250D01*
X144940898Y-96273986D01*
X144930665Y-96161543D01*
X144930664Y-96161540D01*
X144930106Y-96155404D01*
X144911660Y-96092728D01*
X144884170Y-95999329D01*
X144872881Y-95960971D01*
X144870027Y-95955511D01*
X144781838Y-95786819D01*
X144781835Y-95786815D01*
X144778981Y-95781355D01*
X144778779Y-95781103D01*
X144758799Y-95715088D01*
X144773959Y-95654115D01*
X144863962Y-95487658D01*
X144868714Y-95476353D01*
X144907422Y-95351308D01*
X144907628Y-95337205D01*
X144900873Y-95334000D01*
X144131242Y-95334000D01*
X144117197Y-95333215D01*
X144102799Y-95331600D01*
X143968183Y-95316500D01*
X143408996Y-95316500D01*
X143258287Y-95331277D01*
X143255998Y-95331968D01*
X143235276Y-95334000D01*
X142476014Y-95334000D01*
X142462483Y-95337973D01*
X142461363Y-95345768D01*
X142495846Y-95462932D01*
X142500439Y-95474300D01*
X142588584Y-95642907D01*
X142590597Y-95645983D01*
X142591154Y-95647822D01*
X142591440Y-95648370D01*
X142591336Y-95648424D01*
X142611161Y-95713936D01*
X142596001Y-95774906D01*
X142502644Y-95947565D01*
X142442710Y-96141180D01*
X142442066Y-96147305D01*
X142442066Y-96147306D01*
X142422227Y-96336062D01*
X142421524Y-96342750D01*
X140918644Y-96342750D01*
X141005615Y-96226705D01*
X141056745Y-96090316D01*
X141063500Y-96028134D01*
X141063500Y-94383134D01*
X142426500Y-94383134D01*
X142433255Y-94445316D01*
X142436029Y-94452715D01*
X142481234Y-94573299D01*
X142484385Y-94581705D01*
X142489768Y-94588888D01*
X142490242Y-94589753D01*
X142505411Y-94659110D01*
X142500087Y-94687522D01*
X142462578Y-94808693D01*
X142462372Y-94822795D01*
X142469127Y-94826000D01*
X142773180Y-94826000D01*
X142809495Y-94832584D01*
X142809600Y-94832144D01*
X142817284Y-94833971D01*
X142824684Y-94836745D01*
X142886866Y-94843500D01*
X144483134Y-94843500D01*
X144545316Y-94836745D01*
X144552716Y-94833971D01*
X144560400Y-94832144D01*
X144560505Y-94832584D01*
X144596820Y-94826000D01*
X144893986Y-94826000D01*
X144907517Y-94822027D01*
X144908637Y-94814232D01*
X144874154Y-94697067D01*
X144873949Y-94696560D01*
X144873921Y-94696276D01*
X144872415Y-94691159D01*
X144873388Y-94690873D01*
X144866975Y-94625906D01*
X144880246Y-94588869D01*
X144885615Y-94581705D01*
X144936745Y-94445316D01*
X144943500Y-94383134D01*
X144943500Y-93236866D01*
X144936745Y-93174684D01*
X144885615Y-93038295D01*
X144798261Y-92921739D01*
X144681705Y-92834385D01*
X144545316Y-92783255D01*
X144483134Y-92776500D01*
X142886866Y-92776500D01*
X142824684Y-92783255D01*
X142688295Y-92834385D01*
X142571739Y-92921739D01*
X142484385Y-93038295D01*
X142433255Y-93174684D01*
X142426500Y-93236866D01*
X142426500Y-94383134D01*
X141063500Y-94383134D01*
X141063500Y-94131866D01*
X141056745Y-94069684D01*
X141005615Y-93933295D01*
X140918261Y-93816739D01*
X140801705Y-93729385D01*
X140665316Y-93678255D01*
X140603134Y-93671500D01*
X138706866Y-93671500D01*
X138644684Y-93678255D01*
X138508295Y-93729385D01*
X138391739Y-93816739D01*
X138304385Y-93933295D01*
X138253255Y-94069684D01*
X138246500Y-94131866D01*
X138246500Y-96028134D01*
X133078354Y-96028134D01*
X133107260Y-95999329D01*
X133113937Y-95991484D01*
X133243010Y-95811859D01*
X133248321Y-95803020D01*
X133346318Y-95604737D01*
X133350117Y-95595142D01*
X133414415Y-95383517D01*
X133416594Y-95373436D01*
X133419422Y-95351960D01*
X133417210Y-95337779D01*
X133404052Y-95334000D01*
X132307115Y-95334000D01*
X132291876Y-95338475D01*
X132290671Y-95339865D01*
X132289000Y-95347548D01*
X132289000Y-96448928D01*
X131781000Y-96448928D01*
X131781000Y-95352115D01*
X131776525Y-95336876D01*
X131775135Y-95335671D01*
X131767452Y-95334000D01*
X130666968Y-95334000D01*
X130653437Y-95337973D01*
X130652000Y-95347966D01*
X129209425Y-95347966D01*
X129217517Y-95255475D01*
X129217517Y-95244525D01*
X129198528Y-95027481D01*
X129196625Y-95016688D01*
X129141455Y-94810788D01*
X130648484Y-94810788D01*
X130650625Y-94822609D01*
X130663001Y-94826000D01*
X131762885Y-94826000D01*
X131778124Y-94821525D01*
X131779329Y-94820135D01*
X131781000Y-94812452D01*
X131781000Y-94807885D01*
X132289000Y-94807885D01*
X132293475Y-94823124D01*
X132294865Y-94824329D01*
X132302548Y-94826000D01*
X133404900Y-94826000D01*
X133418431Y-94822027D01*
X133419736Y-94812947D01*
X133373710Y-94629708D01*
X133370389Y-94619953D01*
X133282193Y-94417118D01*
X133277315Y-94408020D01*
X133157177Y-94222315D01*
X133150885Y-94214144D01*
X133002023Y-94050547D01*
X132994490Y-94043521D01*
X132820901Y-93906429D01*
X132812323Y-93900730D01*
X132618678Y-93793833D01*
X132609272Y-93789606D01*
X132400772Y-93715772D01*
X132390809Y-93713140D01*
X132306836Y-93698182D01*
X132293541Y-93699641D01*
X132289000Y-93714199D01*
X132289000Y-94807885D01*
X131781000Y-94807885D01*
X131781000Y-93712517D01*
X131777082Y-93699173D01*
X131762806Y-93697186D01*
X131712694Y-93704855D01*
X131702666Y-93707244D01*
X131492426Y-93775961D01*
X131482916Y-93779958D01*
X131286728Y-93882087D01*
X131278003Y-93887581D01*
X131101123Y-94020386D01*
X131093416Y-94027229D01*
X130940600Y-94187143D01*
X130934113Y-94195153D01*
X130809474Y-94377867D01*
X130804376Y-94386841D01*
X130711252Y-94587459D01*
X130707689Y-94597146D01*
X130648581Y-94810279D01*
X130648484Y-94810788D01*
X129141455Y-94810788D01*
X129140236Y-94806239D01*
X129136490Y-94795947D01*
X129044414Y-94598489D01*
X129038931Y-94588994D01*
X129002491Y-94536952D01*
X128992012Y-94528576D01*
X128978566Y-94535644D01*
X128277022Y-95237188D01*
X128269408Y-95251132D01*
X127539356Y-95251132D01*
X127540592Y-95248868D01*
X127540461Y-95247035D01*
X127536210Y-95240420D01*
X126830713Y-94534923D01*
X126818938Y-94528493D01*
X126806923Y-94537789D01*
X126771069Y-94588994D01*
X126765586Y-94598489D01*
X126673510Y-94795947D01*
X126669764Y-94806239D01*
X126613375Y-95016688D01*
X126611472Y-95027481D01*
X126592483Y-95244525D01*
X126592483Y-95255475D01*
X124946744Y-95255475D01*
X124948903Y-94162988D01*
X127183576Y-94162988D01*
X127190644Y-94176434D01*
X127892188Y-94877978D01*
X127906132Y-94885592D01*
X127907965Y-94885461D01*
X127914580Y-94881210D01*
X128620077Y-94175713D01*
X128626507Y-94163938D01*
X128617211Y-94151923D01*
X128566006Y-94116069D01*
X128556511Y-94110586D01*
X128359053Y-94018510D01*
X128348761Y-94014764D01*
X128138312Y-93958375D01*
X128127519Y-93956472D01*
X127910475Y-93937483D01*
X127899525Y-93937483D01*
X127682481Y-93956472D01*
X127671688Y-93958375D01*
X127461239Y-94014764D01*
X127450947Y-94018510D01*
X127253489Y-94110586D01*
X127243994Y-94116069D01*
X127191952Y-94152509D01*
X127183576Y-94162988D01*
X124948903Y-94162988D01*
X124953981Y-91592750D01*
X127121524Y-91592750D01*
X127129102Y-91676014D01*
X127132249Y-91710589D01*
X127139894Y-91794596D01*
X127141632Y-91800502D01*
X127141633Y-91800506D01*
X127162863Y-91872637D01*
X127197119Y-91989029D01*
X127199972Y-91994486D01*
X127199973Y-91994489D01*
X127204127Y-92002435D01*
X127291019Y-92168645D01*
X127294879Y-92173445D01*
X127294879Y-92173446D01*
X127300729Y-92180722D01*
X127418019Y-92326601D01*
X127573281Y-92456881D01*
X127578673Y-92459845D01*
X127578677Y-92459848D01*
X127742274Y-92549786D01*
X127750891Y-92554523D01*
X127944084Y-92615807D01*
X127950201Y-92616493D01*
X127950205Y-92616494D01*
X128024348Y-92624810D01*
X128101817Y-92633500D01*
X128661004Y-92633500D01*
X128811713Y-92618723D01*
X129005742Y-92560142D01*
X129184698Y-92464990D01*
X129341763Y-92336890D01*
X129436307Y-92222606D01*
X129467027Y-92185472D01*
X129467029Y-92185469D01*
X129470956Y-92180722D01*
X129487746Y-92149669D01*
X136147001Y-92149669D01*
X136147371Y-92156490D01*
X136152895Y-92207352D01*
X136156521Y-92222604D01*
X136201676Y-92343054D01*
X136210214Y-92358649D01*
X136286715Y-92460724D01*
X136299276Y-92473285D01*
X136401351Y-92549786D01*
X136416946Y-92558324D01*
X136537394Y-92603478D01*
X136552649Y-92607105D01*
X136603514Y-92612631D01*
X136610328Y-92613000D01*
X137132885Y-92613000D01*
X137148124Y-92608525D01*
X137149329Y-92607135D01*
X137151000Y-92599452D01*
X137151000Y-92594884D01*
X137659000Y-92594884D01*
X137663475Y-92610123D01*
X137664865Y-92611328D01*
X137672548Y-92612999D01*
X138199669Y-92612999D01*
X138206490Y-92612629D01*
X138257352Y-92607105D01*
X138272604Y-92603479D01*
X138393054Y-92558324D01*
X138408649Y-92549786D01*
X138510724Y-92473285D01*
X138523285Y-92460724D01*
X138599786Y-92358649D01*
X138608324Y-92343054D01*
X138653478Y-92222606D01*
X138657105Y-92207351D01*
X138662631Y-92156486D01*
X138663000Y-92149672D01*
X138663000Y-91852115D01*
X138658525Y-91836876D01*
X138657135Y-91835671D01*
X138649452Y-91834000D01*
X137677115Y-91834000D01*
X137661876Y-91838475D01*
X137660671Y-91839865D01*
X137659000Y-91847548D01*
X137659000Y-92594884D01*
X137151000Y-92594884D01*
X137151000Y-91852115D01*
X137146525Y-91836876D01*
X137145135Y-91835671D01*
X137137452Y-91834000D01*
X136165116Y-91834000D01*
X136149877Y-91838475D01*
X136148672Y-91839865D01*
X136147001Y-91847548D01*
X136147001Y-92149669D01*
X129487746Y-92149669D01*
X129567356Y-92002435D01*
X129618978Y-91835671D01*
X129625468Y-91814707D01*
X129625469Y-91814704D01*
X129627290Y-91808820D01*
X129637371Y-91712912D01*
X129647832Y-91613378D01*
X129647832Y-91613377D01*
X129648476Y-91607250D01*
X129630106Y-91405404D01*
X129607715Y-91329324D01*
X129574620Y-91216880D01*
X129572881Y-91210971D01*
X129568951Y-91203452D01*
X129481835Y-91036815D01*
X129478981Y-91031355D01*
X129479016Y-91031337D01*
X129459111Y-90965559D01*
X129474271Y-90904591D01*
X129521662Y-90816944D01*
X129567356Y-90732435D01*
X129611635Y-90589392D01*
X129625468Y-90544707D01*
X129625469Y-90544704D01*
X129627290Y-90538820D01*
X129628774Y-90524706D01*
X129647832Y-90343378D01*
X129647832Y-90343377D01*
X129648476Y-90337250D01*
X129630106Y-90135404D01*
X129626027Y-90121543D01*
X129574620Y-89946881D01*
X129572881Y-89940971D01*
X129573559Y-89940771D01*
X129567044Y-89874727D01*
X129580320Y-89837677D01*
X129588321Y-89823063D01*
X129633478Y-89702606D01*
X129637105Y-89687351D01*
X129642631Y-89636486D01*
X129643000Y-89629672D01*
X129643000Y-89332115D01*
X129638525Y-89316876D01*
X129637135Y-89315671D01*
X129629452Y-89314000D01*
X128831242Y-89314000D01*
X128817197Y-89313215D01*
X128802799Y-89311600D01*
X128668183Y-89296500D01*
X128108996Y-89296500D01*
X127958287Y-89311277D01*
X127955998Y-89311968D01*
X127935276Y-89314000D01*
X127145116Y-89314000D01*
X127129877Y-89318475D01*
X127128672Y-89319865D01*
X127127001Y-89327548D01*
X127127001Y-89629669D01*
X127127371Y-89636490D01*
X127132895Y-89687352D01*
X127136521Y-89702604D01*
X127181677Y-89823056D01*
X127190114Y-89838466D01*
X127205284Y-89907823D01*
X127199960Y-89936235D01*
X127142710Y-90121180D01*
X127121524Y-90322750D01*
X127129102Y-90406014D01*
X127138612Y-90510506D01*
X127139894Y-90524596D01*
X127141632Y-90530502D01*
X127141633Y-90530506D01*
X127178134Y-90654524D01*
X127197119Y-90719029D01*
X127199972Y-90724486D01*
X127199973Y-90724489D01*
X127240251Y-90801534D01*
X127290923Y-90898460D01*
X127290923Y-90898462D01*
X127291019Y-90898645D01*
X127290984Y-90898663D01*
X127310889Y-90964441D01*
X127295729Y-91025409D01*
X127202644Y-91197565D01*
X127198494Y-91210971D01*
X127157563Y-91343199D01*
X127142710Y-91391180D01*
X127142066Y-91397305D01*
X127142066Y-91397306D01*
X127137602Y-91439776D01*
X127121524Y-91592750D01*
X124953981Y-91592750D01*
X124959523Y-88787885D01*
X127127000Y-88787885D01*
X127131475Y-88803124D01*
X127132865Y-88804329D01*
X127140548Y-88806000D01*
X128112885Y-88806000D01*
X128128124Y-88801525D01*
X128129329Y-88800135D01*
X128131000Y-88792452D01*
X128131000Y-88787885D01*
X128639000Y-88787885D01*
X128643475Y-88803124D01*
X128644865Y-88804329D01*
X128652548Y-88806000D01*
X129624884Y-88806000D01*
X129640123Y-88801525D01*
X129641328Y-88800135D01*
X129642999Y-88792452D01*
X129642999Y-88490331D01*
X129642629Y-88483510D01*
X129637105Y-88432648D01*
X129633479Y-88417396D01*
X129588324Y-88296946D01*
X129579786Y-88281351D01*
X129503285Y-88179276D01*
X129490724Y-88166715D01*
X129388649Y-88090214D01*
X129373054Y-88081676D01*
X129252606Y-88036522D01*
X129237351Y-88032895D01*
X129186486Y-88027369D01*
X129179672Y-88027000D01*
X128657115Y-88027000D01*
X128641876Y-88031475D01*
X128640671Y-88032865D01*
X128639000Y-88040548D01*
X128639000Y-88787885D01*
X128131000Y-88787885D01*
X128131000Y-88045116D01*
X128126525Y-88029877D01*
X128125135Y-88028672D01*
X128117452Y-88027001D01*
X127590331Y-88027001D01*
X127583510Y-88027371D01*
X127532648Y-88032895D01*
X127517396Y-88036521D01*
X127396946Y-88081676D01*
X127381351Y-88090214D01*
X127279276Y-88166715D01*
X127266715Y-88179276D01*
X127190214Y-88281351D01*
X127181676Y-88296946D01*
X127136522Y-88417394D01*
X127132895Y-88432649D01*
X127127369Y-88483514D01*
X127127000Y-88490328D01*
X127127000Y-88787885D01*
X124959523Y-88787885D01*
X124964281Y-86380000D01*
X126691884Y-86380000D01*
X126710314Y-86590655D01*
X126765044Y-86794910D01*
X126854411Y-86986558D01*
X126975699Y-87159776D01*
X127125224Y-87309301D01*
X127298442Y-87430589D01*
X127303420Y-87432910D01*
X127303423Y-87432912D01*
X127485108Y-87517633D01*
X127490090Y-87519956D01*
X127495398Y-87521378D01*
X127495400Y-87521379D01*
X127689030Y-87573262D01*
X127689032Y-87573262D01*
X127694345Y-87574686D01*
X127905000Y-87593116D01*
X128115655Y-87574686D01*
X128120968Y-87573262D01*
X128120970Y-87573262D01*
X128314600Y-87521379D01*
X128314602Y-87521378D01*
X128319910Y-87519956D01*
X128324892Y-87517633D01*
X128506577Y-87432912D01*
X128506580Y-87432910D01*
X128511558Y-87430589D01*
X128684776Y-87309301D01*
X128834301Y-87159776D01*
X128955589Y-86986558D01*
X129044956Y-86794910D01*
X129099686Y-86590655D01*
X129118116Y-86380000D01*
X129099686Y-86169345D01*
X129076691Y-86083527D01*
X129046379Y-85970400D01*
X129046378Y-85970398D01*
X129044956Y-85965090D01*
X128963616Y-85790655D01*
X128957912Y-85778423D01*
X128957910Y-85778420D01*
X128955589Y-85773442D01*
X128834301Y-85600224D01*
X128684776Y-85450699D01*
X128511558Y-85329411D01*
X128506580Y-85327090D01*
X128506577Y-85327088D01*
X128324892Y-85242367D01*
X128324891Y-85242366D01*
X128319910Y-85240044D01*
X128314602Y-85238622D01*
X128314600Y-85238621D01*
X128120970Y-85186738D01*
X128120968Y-85186738D01*
X128115655Y-85185314D01*
X127905000Y-85166884D01*
X127694345Y-85185314D01*
X127689032Y-85186738D01*
X127689030Y-85186738D01*
X127495400Y-85238621D01*
X127495398Y-85238622D01*
X127490090Y-85240044D01*
X127485109Y-85242366D01*
X127485108Y-85242367D01*
X127303423Y-85327088D01*
X127303420Y-85327090D01*
X127298442Y-85329411D01*
X127125224Y-85450699D01*
X126975699Y-85600224D01*
X126854411Y-85773442D01*
X126852090Y-85778420D01*
X126852088Y-85778423D01*
X126846384Y-85790655D01*
X126765044Y-85965090D01*
X126763622Y-85970398D01*
X126763621Y-85970400D01*
X126733309Y-86083527D01*
X126710314Y-86169345D01*
X126691884Y-86380000D01*
X124964281Y-86380000D01*
X124967667Y-84666522D01*
X130572273Y-84666522D01*
X130619764Y-84843761D01*
X130623510Y-84854053D01*
X130715586Y-85051511D01*
X130721069Y-85061007D01*
X130846028Y-85239467D01*
X130853084Y-85247875D01*
X131007125Y-85401916D01*
X131015533Y-85408972D01*
X131193993Y-85533931D01*
X131203489Y-85539414D01*
X131400947Y-85631490D01*
X131411239Y-85635236D01*
X131583503Y-85681394D01*
X131597599Y-85681058D01*
X131601000Y-85673116D01*
X131601000Y-85667967D01*
X132109000Y-85667967D01*
X132112973Y-85681498D01*
X132121522Y-85682727D01*
X132298761Y-85635236D01*
X132309053Y-85631490D01*
X132506511Y-85539414D01*
X132516007Y-85533931D01*
X132694467Y-85408972D01*
X132702875Y-85401916D01*
X132856916Y-85247875D01*
X132863972Y-85239467D01*
X132988931Y-85061007D01*
X132994414Y-85051511D01*
X133086490Y-84854053D01*
X133090236Y-84843761D01*
X133136394Y-84671497D01*
X133136058Y-84657401D01*
X133128116Y-84654000D01*
X132127115Y-84654000D01*
X132111876Y-84658475D01*
X132110671Y-84659865D01*
X132109000Y-84667548D01*
X132109000Y-85667967D01*
X131601000Y-85667967D01*
X131601000Y-84672115D01*
X131596525Y-84656876D01*
X131595135Y-84655671D01*
X131587452Y-84654000D01*
X130587033Y-84654000D01*
X130573502Y-84657973D01*
X130572273Y-84666522D01*
X124967667Y-84666522D01*
X124972066Y-82439956D01*
X124989540Y-73596522D01*
X130622273Y-73596522D01*
X130669764Y-73773761D01*
X130673510Y-73784053D01*
X130765586Y-73981511D01*
X130771069Y-73991007D01*
X130896028Y-74169467D01*
X130903084Y-74177875D01*
X131057125Y-74331916D01*
X131065533Y-74338972D01*
X131243993Y-74463931D01*
X131253489Y-74469414D01*
X131450947Y-74561490D01*
X131461239Y-74565236D01*
X131633503Y-74611394D01*
X131647599Y-74611058D01*
X131651000Y-74603116D01*
X131651000Y-74597967D01*
X132159000Y-74597967D01*
X132162973Y-74611498D01*
X132171522Y-74612727D01*
X132348761Y-74565236D01*
X132359053Y-74561490D01*
X132556511Y-74469414D01*
X132566007Y-74463931D01*
X132744467Y-74338972D01*
X132752875Y-74331916D01*
X132906916Y-74177875D01*
X132913972Y-74169467D01*
X133038931Y-73991007D01*
X133044414Y-73981511D01*
X133136490Y-73784053D01*
X133140236Y-73773761D01*
X133186394Y-73601497D01*
X133186058Y-73587401D01*
X133178116Y-73584000D01*
X132177115Y-73584000D01*
X132161876Y-73588475D01*
X132160671Y-73589865D01*
X132159000Y-73597548D01*
X132159000Y-74597967D01*
X131651000Y-74597967D01*
X131651000Y-73602115D01*
X131646525Y-73586876D01*
X131645135Y-73585671D01*
X131637452Y-73584000D01*
X130637033Y-73584000D01*
X130623502Y-73587973D01*
X130622273Y-73596522D01*
X124989540Y-73596522D01*
X124990603Y-73058503D01*
X130623606Y-73058503D01*
X130623942Y-73072599D01*
X130631884Y-73076000D01*
X131632885Y-73076000D01*
X131648124Y-73071525D01*
X131649329Y-73070135D01*
X131651000Y-73062452D01*
X131651000Y-73057885D01*
X132159000Y-73057885D01*
X132163475Y-73073124D01*
X132164865Y-73074329D01*
X132172548Y-73076000D01*
X133172967Y-73076000D01*
X133186498Y-73072027D01*
X133187727Y-73063478D01*
X133140236Y-72886239D01*
X133136490Y-72875947D01*
X133044414Y-72678489D01*
X133038931Y-72668993D01*
X132913972Y-72490533D01*
X132906916Y-72482125D01*
X132752875Y-72328084D01*
X132744467Y-72321028D01*
X132566007Y-72196069D01*
X132556511Y-72190586D01*
X132359053Y-72098510D01*
X132348761Y-72094764D01*
X132176497Y-72048606D01*
X132162401Y-72048942D01*
X132159000Y-72056884D01*
X132159000Y-73057885D01*
X131651000Y-73057885D01*
X131651000Y-72062033D01*
X131647027Y-72048502D01*
X131638478Y-72047273D01*
X131461239Y-72094764D01*
X131450947Y-72098510D01*
X131253489Y-72190586D01*
X131243993Y-72196069D01*
X131065533Y-72321028D01*
X131057125Y-72328084D01*
X130903084Y-72482125D01*
X130896028Y-72490533D01*
X130771069Y-72668993D01*
X130765586Y-72678489D01*
X130673510Y-72875947D01*
X130669764Y-72886239D01*
X130623606Y-73058503D01*
X124990603Y-73058503D01*
X124998893Y-68862966D01*
X132018257Y-68862966D01*
X132048565Y-68997446D01*
X132051645Y-69007275D01*
X132131770Y-69204603D01*
X132136413Y-69213794D01*
X132247694Y-69395388D01*
X132253777Y-69403699D01*
X132393213Y-69564667D01*
X132400580Y-69571883D01*
X132564434Y-69707916D01*
X132572881Y-69713831D01*
X132756756Y-69821279D01*
X132766042Y-69825729D01*
X132965001Y-69901703D01*
X132974899Y-69904579D01*
X133078250Y-69925606D01*
X133092299Y-69924410D01*
X133096000Y-69914065D01*
X133096000Y-68867115D01*
X133091525Y-68851876D01*
X133090135Y-68850671D01*
X133082452Y-68849000D01*
X132033225Y-68849000D01*
X132019694Y-68852973D01*
X132018257Y-68862966D01*
X124998893Y-68862966D01*
X125007248Y-64634251D01*
X125027385Y-64566170D01*
X125081132Y-64519783D01*
X125133248Y-64508500D01*
X132917510Y-64508500D01*
X132985631Y-64528502D01*
G37*
%TD.AperFunction*%
%TD*%
M02*
